<svg width="24" height="24" viewBox="0 0 24 24" fill="none" xmlns="http://www.w3.org/2000/svg">
<rect width="24" height="24" rx="6" fill="#BED2D2"/>
<path d="M7.50065 6.66406H16.5007C17.0541 6.66403 17.5865 6.87577 17.9888 7.25584C18.3911 7.63592 18.6327 8.15553 18.664 8.70806L18.6673 8.83073V15.1641C18.6674 15.7175 18.4556 16.2499 18.0755 16.6522C17.6955 17.0545 17.1759 17.2961 16.6233 17.3274L16.5007 17.3307H7.50065C6.94723 17.3308 6.41477 17.119 6.0125 16.7389C5.61023 16.3589 5.36865 15.8393 5.33732 15.2867L5.33398 15.1641V8.83073C5.33395 8.2773 5.54569 7.74484 5.92577 7.34258C6.30584 6.94031 6.82545 6.69873 7.37798 6.6674L7.50065 6.66406ZM17.6673 10.2461L12.234 13.1061C12.1726 13.1385 12.1052 13.1578 12.036 13.1627C11.9668 13.1676 11.8973 13.1581 11.832 13.1347L11.768 13.1067L6.33398 10.2467V15.1641C6.334 15.4569 6.4441 15.7389 6.64244 15.9543C6.84078 16.1697 7.11285 16.3026 7.40465 16.3267L7.50065 16.3307H16.5007C16.7935 16.3307 17.0757 16.2205 17.2911 16.022C17.5065 15.8236 17.6394 15.5513 17.6633 15.2594L17.6673 15.1641V10.2461ZM16.5007 7.66406H7.50065C7.20786 7.66407 6.92577 7.77418 6.71039 7.97252C6.49501 8.17086 6.36208 8.44293 6.33798 8.73473L6.33398 8.83073V9.11673L12.0007 12.0987L17.6673 9.11606V8.83073C17.6673 8.53783 17.5571 8.25566 17.3586 8.04026C17.1601 7.82486 16.8879 7.692 16.596 7.66806L16.5007 7.66406Z" fill="white"/>
</svg>
