<svg width="24" height="24" viewBox="0 0 24 24" fill="none" xmlns="http://www.w3.org/2000/svg">
<rect width="24" height="24" rx="6" fill="#BED2D2"/>
<g clip-path="url(#clip0_2496_14244)">
<path d="M8 10.4667V12.3334C8 13.3334 8.86667 14.2 9.86667 14.2H12.3333C12.6667 14.2 12.9333 13.9334 12.9333 13.6V11.7334C12.9333 10.7334 12.1333 9.8667 11.0667 9.8667H8.6C8.26667 9.8667 8 10.1334 8 10.4667V10.4667Z" stroke="white" stroke-width="1.3" stroke-miterlimit="10"/>
<path d="M16 10.1333V13.8666L14.1333 12.6V11.4L16 10.1333Z" stroke="white" stroke-width="1.3" stroke-miterlimit="10" stroke-linecap="round" stroke-linejoin="round"/>
<path d="M12.0002 18.6666C15.6822 18.6666 18.6668 15.6819 18.6668 11.9999C18.6668 8.31792 15.6822 5.33325 12.0002 5.33325C8.31816 5.33325 5.3335 8.31792 5.3335 11.9999C5.3335 15.6819 8.31816 18.6666 12.0002 18.6666Z" stroke="white" stroke-width="1.3" stroke-miterlimit="10"/>
</g>
<defs>
<clipPath id="clip0_2496_14244">
<rect width="16" height="16" fill="white" transform="translate(4 4)"/>
</clipPath>
</defs>
</svg>
