<svg width="24" height="24" viewBox="0 0 24 24" fill="none" xmlns="http://www.w3.org/2000/svg">
<rect width="24" height="24" rx="6" fill="#BED2D2"/>
<path d="M11.9999 12.9532C12.2731 12.9532 12.5435 12.8994 12.7959 12.7949C13.0483 12.6904 13.2776 12.5371 13.4707 12.344C13.6638 12.1508 13.8171 11.9216 13.9216 11.6692C14.0261 11.4168 14.0799 11.1464 14.0799 10.8732C14.0799 10.6001 14.0261 10.3296 13.9216 10.0772C13.8171 9.82487 13.6638 9.59558 13.4707 9.40243C13.2776 9.20928 13.0483 9.05607 12.7959 8.95154C12.5435 8.84701 12.2731 8.79321 11.9999 8.79321C11.4483 8.79321 10.9192 9.01235 10.5291 9.40243C10.1391 9.79251 9.91992 10.3216 9.91992 10.8732C9.91992 11.4249 10.1391 11.9539 10.5291 12.344C10.9192 12.7341 11.4483 12.9532 11.9999 12.9532V12.9532Z" stroke="white" stroke-width="1.5"/>
<path d="M6.4133 9.65992C7.72664 3.88659 16.28 3.89325 17.5866 9.66659C18.3533 13.0533 16.2466 15.9199 14.4 17.6933C13.7547 18.3156 12.8931 18.6634 11.9966 18.6634C11.1001 18.6634 10.2386 18.3156 9.5933 17.6933C7.7533 15.9199 5.64664 13.0466 6.4133 9.65992V9.65992Z" stroke="white" stroke-width="1.5"/>
</svg>
