<svg width="24" height="24" viewBox="0 0 24 24" fill="none" xmlns="http://www.w3.org/2000/svg">
<rect width="24" height="24" rx="6" fill="#BED2D2"/>
<g clip-path="url(#clip0_2496_14215)">
<path d="M18.7787 5.21167L18.0787 4.605C17.272 3.79833 15.9653 3.79833 15.1587 4.605C15.1387 4.625 13.9053 6.23167 13.9053 6.23167C13.1453 7.03167 13.1453 8.29167 13.9053 9.085L14.6787 10.0583C13.7053 12.265 12.192 13.785 10.0587 14.6917L9.08533 13.9117C8.29199 13.145 7.02533 13.145 6.23199 13.9117C6.23199 13.9117 4.62533 15.145 4.60533 15.165C3.79866 15.9717 3.79866 17.2783 4.57199 18.0517L5.23866 18.8183C6.00533 19.585 7.03866 20.005 8.15866 20.005C13.252 20.005 19.9987 13.2517 19.9987 8.165C19.9987 7.05167 19.5787 6.01167 18.7787 5.21833V5.21167ZM8.15866 18.665C7.39866 18.665 6.69866 18.385 6.21866 17.8983L5.55199 17.1317C5.27866 16.8583 5.26533 16.4117 5.52533 16.125C5.52533 16.125 7.11866 14.8983 7.13866 14.8783C7.41199 14.605 7.89199 14.605 8.17199 14.8783C8.19199 14.8983 9.53199 15.9717 9.53199 15.9717C9.71866 16.1183 9.96533 16.1583 10.1853 16.0717C12.9453 15.0183 14.9253 13.045 16.0653 10.1983C16.152 9.97833 16.1187 9.725 15.9653 9.53167C15.9653 9.53167 14.892 8.185 14.8787 8.17167C14.592 7.885 14.592 7.425 14.8787 7.13833C14.8987 7.11833 16.1253 5.525 16.1253 5.525C16.412 5.265 16.8587 5.27167 17.1653 5.57833L17.8653 6.185C18.3787 6.69833 18.6653 7.39833 18.6653 8.15833C18.6653 12.7983 12.152 18.665 8.15866 18.665Z" fill="white"/>
</g>
<defs>
<clipPath id="clip0_2496_14215">
<rect width="16" height="16" fill="white" transform="translate(4 4)"/>
</clipPath>
</defs>
</svg>
