<svg width="14" height="15" viewBox="0 0 14 15" fill="none" xmlns="http://www.w3.org/2000/svg">
<path fill-rule="evenodd" clip-rule="evenodd" d="M8.39144 9.07814C7.6052 9.70634 6.60826 10.0096 5.60538 9.92575C4.60249 9.84186 3.6698 9.37715 2.99885 8.62706C2.3279 7.87696 1.96963 6.89843 1.99762 5.89244C2.02561 4.88644 2.43774 3.92934 3.14936 3.21772C3.86098 2.5061 4.81808 2.09397 5.82408 2.06598C6.83007 2.03799 7.8086 2.39626 8.5587 3.06721C9.30879 3.73816 9.7735 4.67085 9.85739 5.67374C9.94128 6.67662 9.63798 7.67356 9.00978 8.4598L12.0174 11.4669C12.0604 11.5069 12.0949 11.5552 12.1188 11.6089C12.1427 11.6626 12.1556 11.7205 12.1566 11.7792C12.1577 11.838 12.1469 11.8963 12.1248 11.9508C12.1028 12.0053 12.0701 12.0548 12.0285 12.0963C11.987 12.1379 11.9375 12.1706 11.883 12.1926C11.8286 12.2146 11.7702 12.2254 11.7115 12.2244C11.6527 12.2234 11.5948 12.2105 11.5411 12.1866C11.4875 12.1627 11.4392 12.1282 11.3991 12.0852L8.39144 9.07814ZM3.76794 8.16697C3.3398 7.73878 3.0482 7.19328 2.92999 6.59942C2.81179 6.00555 2.87228 5.38997 3.10383 4.83048C3.33537 4.27098 3.72758 3.79268 4.23088 3.45603C4.73419 3.11937 5.32599 2.93948 5.93151 2.93907C6.53702 2.93866 7.12907 3.11776 7.63283 3.45374C8.13658 3.78972 8.52944 4.26749 8.76174 4.82667C8.99404 5.38585 9.05536 6.00135 8.93795 6.59538C8.82054 7.1894 8.52967 7.73529 8.10211 8.16405L8.09919 8.16697L8.09628 8.1693C7.52175 8.7425 6.74319 9.06421 5.93163 9.06377C5.12006 9.06334 4.34185 8.74078 3.76794 8.16697Z" fill="#828489"/>
</svg>
