<svg width="39" height="39" viewBox="0 0 39 39" fill="none" xmlns="http://www.w3.org/2000/svg">
<path fill-rule="evenodd" clip-rule="evenodd" d="M22.8887 24.5775C20.7441 26.2911 18.0247 27.1184 15.2891 26.8896C12.5536 26.6608 10.0095 25.3932 8.17931 23.3471C6.34915 21.3011 5.3719 18.632 5.44825 15.8879C5.5246 13.1438 6.64877 10.5332 8.58987 8.59206C10.531 6.65097 13.1416 5.5268 15.8857 5.45045C18.6298 5.3741 21.2989 6.35135 23.3449 8.1815C25.391 10.0117 26.6586 12.5558 26.8874 15.2913C27.1162 18.0269 26.2889 20.7463 24.5753 22.8909L32.7794 31.0933C32.8966 31.2026 32.9906 31.3343 33.0559 31.4807C33.1211 31.6271 33.1562 31.7851 33.159 31.9454C33.1618 32.1056 33.1323 32.2648 33.0723 32.4134C33.0123 32.562 32.923 32.6969 32.8097 32.8103C32.6963 32.9236 32.5613 33.0129 32.4128 33.0729C32.2642 33.133 32.105 33.1624 31.9448 33.1596C31.7845 33.1568 31.6265 33.1217 31.4801 33.0565C31.3337 32.9913 31.202 32.8972 31.0927 32.78L22.8887 24.5775ZM10.2772 22.0921C9.10933 20.9242 8.31392 19.4362 7.99149 17.8163C7.66906 16.1964 7.83406 14.5173 8.46566 12.9912C9.09725 11.465 10.1671 10.1604 11.5399 9.24209C12.9128 8.3238 14.5271 7.83309 16.1787 7.83198C17.8304 7.83087 19.4453 8.31941 20.8194 9.23585C22.1935 10.1523 23.2651 11.4555 23.8988 12.9808C24.5324 14.5061 24.6997 16.185 24.3794 17.8053C24.0592 19.4256 23.2658 20.9146 22.0995 22.0842L22.0915 22.0921L22.0836 22.0985C20.5164 23.662 18.3928 24.5396 16.1791 24.5384C13.9653 24.5372 11.8426 23.6573 10.2772 22.0921Z" fill="#828489"/>
</svg>
