<svg width="70" height="70" viewBox="0 0 70 70" fill="none" xmlns="http://www.w3.org/2000/svg">
<circle cx="35" cy="35" r="35" fill="#BED2D2"/>
<path d="M49.625 27.125V42.875C49.625 43.4717 49.3879 44.044 48.966 44.466C48.544 44.8879 47.9717 45.125 47.375 45.125H22.625C22.0283 45.125 21.456 44.8879 21.034 44.466C20.6121 44.044 20.375 43.4717 20.375 42.875V27.125M49.625 27.125C49.625 26.5283 49.3879 25.956 48.966 25.534C48.544 25.1121 47.9717 24.875 47.375 24.875H22.625C22.0283 24.875 21.456 25.1121 21.034 25.534C20.6121 25.956 20.375 26.5283 20.375 27.125M49.625 27.125L36.2803 36.3635C35.9041 36.6238 35.4575 36.7632 35 36.7632C34.5425 36.7632 34.0959 36.6238 33.7198 36.3635L20.375 27.125" stroke="white" stroke-width="2" stroke-linecap="round" stroke-linejoin="round"/>
</svg>
