<svg width="70" height="70" viewBox="0 0 70 70" fill="none" xmlns="http://www.w3.org/2000/svg">
<circle cx="35" cy="35" r="35" fill="#BED2D2"/>
<path d="M34.9999 25.2778C33.7981 25.2778 32.6233 25.6341 31.624 26.3018C30.6248 26.9695 29.8459 27.9185 29.386 29.0288C28.9261 30.1391 28.8058 31.3609 29.0403 32.5396C29.2747 33.7183 29.8534 34.801 30.7032 35.6508C31.553 36.5006 32.6357 37.0793 33.8144 37.3138C34.9932 37.5482 36.2149 37.4279 37.3252 36.968C38.4355 36.5081 39.3845 35.7293 40.0522 34.73C40.7199 33.7307 41.0763 32.5559 41.0763 31.3541C41.0763 29.7426 40.4361 28.197 39.2965 27.0575C38.157 25.9179 36.6115 25.2778 34.9999 25.2778ZM34.9999 35C34.2788 35 33.5739 34.7861 32.9744 34.3855C32.3748 33.9849 31.9075 33.4155 31.6316 32.7493C31.3556 32.0832 31.2834 31.3501 31.4241 30.6429C31.5648 29.9357 31.912 29.286 32.4219 28.7761C32.9318 28.2663 33.5814 27.919 34.2886 27.7784C34.9958 27.6377 35.7289 27.7099 36.3951 27.9858C37.0613 28.2618 37.6307 28.7291 38.0313 29.3286C38.4319 29.9282 38.6457 30.6331 38.6457 31.3541C38.6457 32.3211 38.2616 33.2484 37.5779 33.9321C36.8942 34.6159 35.9668 35 34.9999 35ZM34.9999 17.9861C31.4557 17.9901 28.0578 19.3998 25.5517 21.9059C23.0456 24.4121 21.6359 27.8099 21.6318 31.3541C21.6318 36.1241 23.836 41.1797 28.012 45.9755C29.8885 48.1425 32.0004 50.0939 34.3087 51.7936C34.513 51.9367 34.7565 52.0135 35.006 52.0135C35.2555 52.0135 35.4989 51.9367 35.7032 51.7936C38.0073 50.0932 40.1151 48.1419 41.9877 45.9755C46.1577 41.1797 48.3679 36.1241 48.3679 31.3541C48.3639 27.8099 46.9542 24.4121 44.4481 21.9059C41.942 19.3998 38.5441 17.9901 34.9999 17.9861ZM34.9999 49.2795C32.4888 47.3047 24.0624 40.051 24.0624 31.3541C24.0624 28.4533 25.2147 25.6713 27.2659 23.6202C29.3171 21.569 32.0991 20.4166 34.9999 20.4166C37.9007 20.4166 40.6827 21.569 42.7339 23.6202C44.785 25.6713 45.9374 28.4533 45.9374 31.3541C45.9374 40.0479 37.511 47.3047 34.9999 49.2795Z" fill="white"/>
</svg>
