<svg width="70" height="70" viewBox="0 0 70 70" fill="none" xmlns="http://www.w3.org/2000/svg">
<circle cx="35" cy="35" r="35" fill="#BED2D2"/>
<path d="M46.25 49.625H46.0587C23.9525 48.3538 20.8137 29.7013 20.375 24.0088C20.3396 23.5662 20.3919 23.1209 20.529 22.6986C20.666 22.2762 20.885 21.8851 21.1734 21.5475C21.4618 21.21 21.8141 20.9326 22.2099 20.7314C22.6057 20.5302 23.0373 20.4091 23.48 20.375H29.6787C30.1294 20.3746 30.5697 20.5094 30.9428 20.7622C31.3159 21.0149 31.6045 21.3739 31.7712 21.7925L33.4812 26C33.6459 26.409 33.6867 26.8573 33.5987 27.2894C33.5107 27.7214 33.2977 28.118 32.9862 28.43L30.59 30.8488C30.9643 32.9758 31.9829 34.9366 33.5081 36.4658C35.0333 37.995 36.9914 39.0188 39.1175 39.3988L41.5587 36.98C41.8754 36.6719 42.2758 36.4639 42.7099 36.3819C43.144 36.2999 43.5927 36.3475 44 36.5188L48.2412 38.2175C48.6536 38.3895 49.0054 38.6803 49.2518 39.053C49.4982 39.4257 49.6281 39.8632 49.625 40.31V46.25C49.625 47.1451 49.2694 48.0036 48.6365 48.6365C48.0035 49.2694 47.1451 49.625 46.25 49.625ZM23.75 22.625C23.4516 22.625 23.1655 22.7435 22.9545 22.9545C22.7435 23.1655 22.625 23.4516 22.625 23.75V23.84C23.1425 30.5 26.4612 46.25 46.1825 47.375C46.3303 47.3841 46.4784 47.364 46.6184 47.3158C46.7584 47.2675 46.8875 47.1921 46.9983 47.0939C47.1091 46.9956 47.1994 46.8765 47.264 46.7432C47.3287 46.61 47.3664 46.4653 47.375 46.3175V40.31L43.1337 38.6112L39.905 41.8175L39.365 41.75C29.5775 40.5238 28.25 30.7363 28.25 30.635L28.1825 30.095L31.3775 26.8663L29.69 22.625H23.75Z" fill="white"/>
</svg>
