<svg width="129" height="54" viewBox="0 0 129 54" fill="none" xmlns="http://www.w3.org/2000/svg">
<path d="M89.1316 30.0241C89.2365 30.0591 89.2977 30.0853 89.3151 30.1028L89.7347 30.3126C90.1543 30.4 90.8711 30.4262 91.8852 30.3912C92.4271 30.3737 92.8118 30.3475 93.0391 30.3126C93.9832 30.1727 94.7612 29.9716 95.3731 29.7094C95.9675 29.4471 96.3958 29.1237 96.6581 28.7391C96.8854 28.4244 96.964 28.0922 96.8941 27.7425C96.8766 27.725 96.8504 27.7076 96.8154 27.6901C96.798 27.6551 96.7892 27.6289 96.7892 27.6114C96.7717 27.5939 96.763 27.5764 96.763 27.5589C96.7805 27.5415 96.7892 27.524 96.7892 27.5065C96.7717 27.4715 96.7455 27.4366 96.7105 27.4016L96.6843 27.3754C96.6668 27.3754 96.6668 27.3754 96.6843 27.3754C96.7193 27.3579 96.7368 27.3404 96.7368 27.3229C96.7193 27.3054 96.7105 27.2617 96.7105 27.1918C96.7105 27.1219 96.7105 27.0694 96.7105 27.0345L96.6843 27.0607H96.6319L96.6843 26.9296C96.6319 26.4225 96.3347 25.8893 95.7927 25.3298C95.5479 25.0676 95.3556 24.8928 95.2157 24.8053H95.1108C95.0759 24.7879 95.0409 24.7616 95.0059 24.7267C94.971 24.6742 94.9447 24.6393 94.9273 24.6218C94.3153 24.2896 93.7908 24.0448 93.3538 23.8875C93.1789 23.835 92.8555 23.7738 92.3834 23.7039C92.2785 23.6864 91.8939 23.6689 91.2295 23.6514C91.2295 23.6689 91.2121 23.7126 91.1771 23.7826C91.1596 23.87 91.1246 23.9224 91.0722 23.9399C91.0372 23.9574 91.011 24.0099 90.9935 24.0973V24.1759C90.976 24.2284 90.9411 24.3333 90.8886 24.4906C90.8537 24.648 90.81 24.7791 90.7575 24.884L90.6526 25.0676C90.6351 25.0326 90.6089 25.0239 90.5739 25.0414C90.6264 25.1637 90.5914 25.3735 90.469 25.6708C90.2767 26.0729 90.1281 26.51 90.0232 26.982C90.0057 26.9995 89.9882 27.0432 89.9708 27.1131C89.9533 27.1656 89.9358 27.2005 89.9183 27.218C89.9183 27.253 89.9183 27.2967 89.9183 27.3492C89.9183 27.3841 89.9183 27.4191 89.9183 27.4541C89.9008 27.489 89.8746 27.5415 89.8396 27.6114C89.8047 27.6813 89.7784 27.725 89.761 27.7425C89.6735 27.9523 89.6123 28.1796 89.5774 28.4244C89.5774 28.4419 89.5686 28.4856 89.5512 28.5555C89.5512 28.6079 89.5424 28.6517 89.5249 28.6866C89.5249 28.7391 89.5337 28.8003 89.5512 28.8702C89.5686 28.9226 89.5774 28.9663 89.5774 29.0013C89.5424 29.2111 89.3938 29.552 89.1316 30.0241ZM91.8327 22.4451C91.8327 22.4276 91.8415 22.4014 91.8589 22.3664V22.3402L91.6229 22.2615C91.6054 22.2615 91.588 22.2528 91.5705 22.2353C91.553 22.3052 91.518 22.3839 91.4656 22.4713H91.4918C91.5967 22.4538 91.7103 22.4451 91.8327 22.4451ZM91.8589 21.6059C91.9638 21.5535 92.1125 21.5272 92.3048 21.5272C92.4971 21.5098 92.5932 21.501 92.5932 21.501C92.6107 21.4835 92.6457 21.4748 92.6981 21.4748L92.803 21.501C92.8205 21.501 92.8293 21.4923 92.8293 21.4748H92.9079C92.9604 21.4748 92.9954 21.4748 93.0128 21.4748V21.4486H93.1177H93.1964C94.63 21.0639 95.749 20.4782 96.5532 19.6915L96.5794 19.6128C96.5969 19.5953 96.6231 19.5516 96.6581 19.4817C96.7105 19.4118 96.7542 19.3506 96.7892 19.2981C96.8067 19.2632 96.8242 19.2195 96.8417 19.167C96.8766 19.0971 96.8941 19.0534 96.8941 19.0359C96.9116 19.0009 96.9378 18.9572 96.9728 18.9048C97.0252 18.8348 97.0602 18.7824 97.0777 18.7474C97.1651 18.5551 97.2525 18.3278 97.3399 18.0656C97.3399 18.0306 97.3487 17.9956 97.3662 17.9607C97.3836 17.9257 97.3924 17.8907 97.3924 17.8558C97.4099 17.8208 97.4186 17.7858 97.4186 17.7509C97.4186 17.5935 97.3749 17.375 97.2875 17.0952C97.2001 16.868 97.1651 16.7456 97.1826 16.7281C97.2176 16.4309 97.2263 16.2386 97.2088 16.1511C97.1913 16.1162 97.1738 16.09 97.1564 16.0725C97.1389 16.055 97.1214 16.0375 97.1039 16.02C97.1039 16.0025 97.0952 15.9763 97.0777 15.9413C97.0602 15.8889 97.0427 15.8627 97.0252 15.8627C96.9903 15.8102 96.9203 15.7578 96.8154 15.7053C96.798 15.6878 96.7805 15.6704 96.763 15.6529C96.7455 15.6354 96.728 15.6266 96.7105 15.6266C96.5532 15.5567 96.3609 15.5043 96.1336 15.4693L95.9238 15.4431C95.1895 15.478 94.359 15.6791 93.4324 16.0462C93.3975 16.1162 93.345 16.2386 93.2751 16.4134C93.2052 16.5882 93.1614 16.7281 93.144 16.833C93.109 16.9029 93.074 16.9991 93.0391 17.1215C93.0216 17.2438 93.0128 17.3313 93.0128 17.3837C92.9779 17.5061 92.8992 17.7509 92.7768 18.118C92.6719 18.4677 92.6107 18.7037 92.5932 18.8261C92.5758 18.861 92.5583 18.896 92.5408 18.931C92.5408 18.9659 92.532 18.9922 92.5146 19.0097C92.5146 19.0271 92.5146 19.0621 92.5146 19.1146C92.5146 19.1495 92.5146 19.1757 92.5146 19.1932C92.4621 19.403 92.3922 19.6565 92.3048 19.9537C92.2174 20.251 92.1212 20.5657 92.0163 20.8978C91.9289 21.23 91.8589 21.466 91.8065 21.6059C91.8065 21.6234 91.8065 21.6409 91.8065 21.6584C91.824 21.6409 91.8415 21.6234 91.8589 21.6059ZM81.946 29.2373C82.0334 29.1499 82.1383 29.0712 82.2607 29.0013C82.3656 28.9314 82.4879 28.8789 82.6278 28.844C82.7502 28.7915 82.8201 28.7566 82.8376 28.7391C82.8551 28.7391 82.8988 28.7303 82.9687 28.7128C83.0387 28.6954 83.0824 28.6866 83.0998 28.6866V28.6604C83.1173 28.6604 83.161 28.6517 83.231 28.6342C83.3009 28.6167 83.3446 28.6079 83.3621 28.6079C83.3446 28.5905 83.3446 28.5817 83.3621 28.5817C83.3796 28.5817 83.4583 28.573 83.5981 28.5555C84.6121 28.4331 85.7573 28.5992 87.0336 29.0538C87.086 28.6342 87.3395 27.6551 87.7941 26.1166V26.0117C87.7941 25.9767 87.8116 25.9155 87.8465 25.8281C87.8815 25.7407 87.9077 25.6708 87.9252 25.6183C87.9252 25.5833 87.9252 25.5309 87.9252 25.461C87.9427 25.391 87.9602 25.3386 87.9777 25.3036C87.9952 25.2512 88.0214 25.1812 88.0563 25.0938C88.1088 25.0064 88.1438 24.9452 88.1612 24.9102C88.2137 24.7704 88.2749 24.613 88.3448 24.4382C88.4147 24.2459 88.4672 24.106 88.5022 24.0186C88.5196 23.9661 88.5546 23.8962 88.6071 23.8088C88.6595 23.7039 88.6945 23.6252 88.712 23.5728C88.7469 23.4504 88.7732 23.328 88.7906 23.2056C88.8256 23.0658 88.8606 22.9172 88.8955 22.7598C88.948 22.6025 88.983 22.4713 89.0004 22.3664C89.0179 22.2965 89.0616 22.1217 89.1316 21.8419C89.2015 21.5622 89.2539 21.3524 89.2889 21.2125C89.3414 21.0552 89.4113 20.8366 89.4987 20.5569C89.5861 20.2772 89.6473 20.0849 89.6823 19.98C89.6998 19.945 89.7085 19.9013 89.7085 19.8488C89.7085 19.7964 89.7172 19.7527 89.7347 19.7177C89.7347 19.6828 89.7522 19.6478 89.7872 19.6128C89.8221 19.5604 89.8396 19.5254 89.8396 19.5079C89.8571 19.4555 89.8746 19.403 89.8921 19.3506C89.9096 19.2981 89.9183 19.2544 89.9183 19.2195V19.1408C89.9183 19.1233 89.927 19.1058 89.9445 19.0883C89.9795 19.0708 89.997 19.0534 89.997 19.0359C90.0669 18.8086 90.1281 18.6163 90.1806 18.4589H90.1543L90.233 18.3016C90.2505 18.2841 90.2592 18.2579 90.2592 18.2229C89.8921 18.4502 89.6648 18.5726 89.5774 18.5901L89.4987 18.6425C89.4637 18.66 89.4375 18.6687 89.42 18.6687V18.6425C89.4026 18.6425 89.3763 18.66 89.3414 18.695C89.3064 18.7124 89.2802 18.7299 89.2627 18.7474C89.2452 18.7474 89.2277 18.7474 89.2102 18.7474C89.1928 18.7299 89.1753 18.7212 89.1578 18.7212C89.0004 18.7561 88.913 18.7736 88.8955 18.7736C88.8955 18.7561 88.8868 18.7474 88.8693 18.7474L88.8169 18.7736C88.7819 18.7736 88.7294 18.7387 88.6595 18.6687C88.5896 18.5813 88.5721 18.5289 88.6071 18.5114C88.6071 18.4939 88.6158 18.4502 88.6333 18.3803C88.6508 18.3103 88.6857 18.2579 88.7382 18.2229C88.7382 18.2054 88.7294 18.1967 88.712 18.1967C88.712 18.1792 88.712 18.1705 88.712 18.1705C88.712 18.153 88.7207 18.1267 88.7382 18.0918C88.7732 18.0568 88.7994 18.0393 88.8169 18.0393C88.8343 17.9869 88.8693 17.8645 88.9218 17.6722C88.9917 17.4799 89.0616 17.3487 89.1316 17.2788C89.4637 16.9291 89.8047 16.6057 90.1543 16.3085C90.3991 16.1162 90.6788 15.9239 90.9935 15.7315C91.046 15.5917 91.1334 15.3906 91.2558 15.1284C91.2733 15.1109 91.2995 15.0584 91.3344 14.971C91.3694 14.8661 91.3956 14.7962 91.4131 14.7612C91.4306 14.7263 91.4568 14.6738 91.4918 14.6039C91.5268 14.5165 91.553 14.4553 91.5705 14.4203C91.6054 14.3679 91.6404 14.3329 91.6754 14.3154L91.7016 14.2892V14.263H91.7278C91.7453 14.263 91.754 14.2542 91.754 14.2367C91.754 14.2192 91.754 14.2105 91.754 14.2105C91.754 14.193 91.7715 14.1843 91.8065 14.1843H91.8589C91.9464 14.1493 91.9988 14.1318 92.0163 14.1318C92.0338 14.1318 92.0513 14.1318 92.0687 14.1318V14.1056C92.1212 14.1056 92.2261 14.1231 92.3834 14.1581C92.5583 14.1755 92.6544 14.2018 92.6719 14.2367L92.803 14.2892C92.873 14.3416 92.9254 14.3853 92.9604 14.4203H93.0128C93.0303 14.4203 93.0391 14.429 93.0391 14.4465C93.0565 14.4465 93.0653 14.464 93.0653 14.499C93.0828 14.5165 93.1003 14.5252 93.1177 14.5252C93.1527 14.5427 93.2401 14.6039 93.38 14.7088C94.1842 14.4815 94.936 14.3154 95.6353 14.2105C95.6703 14.2105 95.7227 14.2105 95.7927 14.2105C95.8626 14.193 95.9063 14.1843 95.9238 14.1843C95.9588 14.1843 96.0025 14.1843 96.0549 14.1843C96.1249 14.1668 96.1686 14.1581 96.186 14.1581C96.798 14.1406 97.4274 14.2018 98.0742 14.3416C98.7386 14.4815 99.2369 14.6913 99.569 14.971C99.7439 15.1284 99.8837 15.3207 99.9886 15.548C100.094 15.7753 100.155 15.9413 100.172 16.0462C100.19 16.1511 100.207 16.3435 100.225 16.6232C100.225 16.6756 100.251 16.7631 100.303 16.8854L100.408 17.069C100.443 17.3313 100.417 17.5935 100.33 17.8558C100.295 17.9607 100.251 18.0306 100.198 18.0656C100.146 18.1005 100.102 18.1617 100.067 18.2491L100.094 18.354C99.9012 18.7561 99.7439 19.0359 99.6215 19.1932L99.4379 19.403L99.3855 19.2981L99.3592 19.3506C99.3767 19.5254 99.2369 19.7352 98.9397 19.98C98.3977 20.452 97.9431 20.8279 97.576 21.1076C97.541 21.1426 97.4885 21.1776 97.4186 21.2125C97.3487 21.2475 97.2962 21.2737 97.2613 21.2912C97.2438 21.3087 97.2176 21.3349 97.1826 21.3699C97.1476 21.4049 97.1039 21.4311 97.0515 21.4486C97.034 21.466 96.8941 21.5272 96.6319 21.6321C96.5969 21.6496 96.3084 21.7807 95.7664 22.0255C95.714 22.043 95.6441 22.0692 95.5566 22.1042C95.4867 22.1217 95.4343 22.1391 95.3993 22.1566C95.3468 22.1741 95.2769 22.2091 95.1895 22.2615C95.1196 22.2965 95.0671 22.3227 95.0321 22.3402C94.7699 22.4101 94.4814 22.4713 94.1667 22.5238C94.7087 22.6112 95.3906 22.8035 96.2123 23.1007C96.7193 23.293 97.0777 23.4504 97.2875 23.5728C98.0393 24.0099 98.7561 24.6305 99.4379 25.4347C99.4729 25.4522 99.5079 25.5047 99.5428 25.5921C99.5778 25.662 99.604 25.697 99.6215 25.697C99.639 25.732 99.6739 25.7844 99.7264 25.8543C99.7788 25.9068 99.8051 25.9505 99.8051 25.9855C99.9799 26.6149 99.91 27.3404 99.5953 28.1621C99.2806 28.9838 98.8785 29.5695 98.3889 29.9192C98.2141 30.0416 98.0218 30.1552 97.812 30.2601C97.6022 30.365 97.4361 30.4437 97.3137 30.4961C97.2088 30.5311 97.0252 30.5923 96.763 30.6797C96.5007 30.7671 96.3434 30.8196 96.2909 30.8371C96.2385 30.8545 96.1686 30.8895 96.0811 30.942C95.9937 30.9769 95.9063 31.0119 95.8189 31.0469C95.749 31.0818 95.7053 31.0993 95.6878 31.0993C95.3031 31.2392 94.8923 31.3528 94.4552 31.4402C94.2804 31.4752 94.1492 31.4927 94.0618 31.4927C93.9919 31.4752 93.8695 31.4839 93.6947 31.5189C93.5723 31.5364 93.5111 31.5539 93.5111 31.5714C92.7593 31.6762 92.1125 31.7462 91.5705 31.7811C91.4831 31.7811 91.3956 31.7811 91.3082 31.7811C91.2208 31.7811 91.1421 31.7811 91.0722 31.7811H90.9673V31.7287C90.4778 31.8336 89.997 31.8598 89.5249 31.8074C88.7906 31.72 88.0826 31.5714 87.4007 31.3616C87.3483 31.3441 87.2783 31.3178 87.1909 31.2829C87.121 31.2304 87.0685 31.2042 87.0336 31.2042C87.0161 31.1867 86.9811 31.1692 86.9287 31.1518C86.8762 31.1343 86.8238 31.1168 86.7713 31.0993C86.7189 31.0643 86.6402 31.0119 86.5353 30.942C86.4479 30.872 86.3954 30.8283 86.378 30.8108C86.1332 30.6535 85.8884 30.5136 85.6437 30.3912C85.6087 30.3737 85.5562 30.3475 85.4863 30.3126C85.4339 30.2776 85.3902 30.2514 85.3552 30.2339C85.3027 30.2164 85.2415 30.2077 85.1716 30.2077C85.1017 30.1902 85.058 30.1814 85.0405 30.1814C84.3412 29.9017 83.9128 29.7706 83.7555 29.7881C83.7205 29.7881 83.4233 29.8493 82.8638 29.9716C82.7589 29.9891 82.6453 30.0241 82.5229 30.0765C82.4355 30.1115 82.383 30.0853 82.3656 29.9979C82.3656 29.9804 82.3568 29.9629 82.3393 29.9454L82.1033 30.0241L81.8148 30.129C81.8323 30.0416 81.8411 29.9367 81.8411 29.8143C81.8411 29.6744 81.8498 29.5608 81.8673 29.4734C81.8848 29.3859 81.911 29.3073 81.946 29.2373ZM99.0554 29.893C99.1079 29.858 99.1953 29.858 99.3177 29.893C99.44 29.9279 99.51 29.9454 99.5275 29.9454L99.5799 29.9716L99.6061 29.9979C99.6236 29.9979 99.6324 29.9891 99.6324 29.9716L99.6848 29.9979C99.7023 30.0153 99.7198 30.0241 99.7373 30.0241L99.7897 30.0503L99.8422 30.0765C100.874 30.2688 101.844 30.2339 102.753 29.9716L102.832 29.9192C102.849 29.9017 102.902 29.8755 102.989 29.8405C103.077 29.8055 103.146 29.7706 103.199 29.7356C103.251 29.7181 103.304 29.6919 103.356 29.6569C103.426 29.622 103.479 29.5957 103.514 29.5783C103.549 29.5608 103.61 29.5346 103.697 29.4996C103.785 29.4471 103.855 29.4034 103.907 29.3685C104.169 29.2111 104.475 29.0101 104.825 28.7653C105.087 28.5905 105.236 28.4856 105.271 28.4506C105.585 28.1883 105.953 27.8212 106.372 27.3492C106.599 27.1044 106.879 26.7809 107.211 26.3788C106.967 25.9592 106.687 25.3386 106.372 24.5169L106.32 24.4644C106.302 24.412 106.285 24.3508 106.267 24.2808C106.25 24.2109 106.232 24.1497 106.215 24.0973C106.197 24.0623 106.171 24.0186 106.136 23.9661C106.119 23.8962 106.101 23.8438 106.084 23.8088C106.066 23.7563 106.049 23.6864 106.031 23.599C106.031 23.5116 106.031 23.4504 106.031 23.4154C105.996 23.293 105.961 23.1444 105.926 22.9696C105.891 22.7773 105.865 22.6287 105.848 22.5238C105.83 22.4713 105.813 22.3927 105.795 22.2878C105.795 22.1829 105.786 22.1042 105.769 22.0517C105.734 21.9468 105.699 21.8332 105.664 21.7108C105.629 21.5709 105.577 21.4223 105.507 21.265C105.454 21.1076 105.419 20.994 105.402 20.9241C105.367 20.8192 105.306 20.6356 105.218 20.3733C105.131 20.1111 105.061 19.9188 105.008 19.7964C104.973 19.674 104.921 19.473 104.851 19.1932C104.781 18.9135 104.72 18.7037 104.668 18.5638C104.668 18.5289 104.65 18.4939 104.615 18.4589C104.598 18.424 104.58 18.389 104.563 18.354C104.545 18.3191 104.536 18.2754 104.536 18.2229V18.118C104.519 18.0656 104.493 18.0218 104.458 17.9869C104.44 17.9344 104.423 17.8907 104.405 17.8558C104.388 17.8208 104.379 17.7946 104.379 17.7771C104.362 17.7596 104.353 17.7421 104.353 17.7246C104.37 17.7072 104.379 17.6897 104.379 17.6722C104.309 17.4624 104.248 17.2876 104.195 17.1477H104.169L104.143 17.1739L104.117 16.9903C104.012 16.6232 103.793 16.1774 103.461 15.6529C103.444 15.6354 103.417 15.6004 103.383 15.548C103.365 15.4955 103.339 15.4431 103.304 15.3906L103.278 15.3382L103.225 15.3119C103.208 15.2945 103.199 15.2682 103.199 15.2333V15.207C102.972 14.8574 102.849 14.6738 102.832 14.6563C102.797 14.6039 102.709 14.5252 102.57 14.4203C102.517 14.3853 102.43 14.3416 102.307 14.2892C102.202 14.2367 102.141 14.2105 102.124 14.2105L102.097 14.1843C102.08 14.1843 102.063 14.1843 102.045 14.1843H102.019C102.001 14.1843 101.984 14.1755 101.966 14.1581L101.94 14.1318L101.809 14.0794H101.783H101.757C101.739 14.0619 101.722 14.0269 101.704 13.9745C101.687 13.9045 101.687 13.8696 101.704 13.8696C101.722 13.8521 101.739 13.8259 101.757 13.7909C101.774 13.7559 101.809 13.7385 101.861 13.7385L101.835 13.7122C101.835 13.6948 101.835 13.686 101.835 13.686C101.853 13.686 101.87 13.6773 101.888 13.6598H101.94C101.975 13.6423 102.028 13.6073 102.097 13.5549C102.167 13.5024 102.229 13.4675 102.281 13.45C102.334 13.415 102.386 13.3975 102.438 13.3975C102.823 13.3801 103.164 13.415 103.461 13.5024C103.776 13.5899 104.152 13.8084 104.589 14.1581C104.816 14.3329 104.973 14.4815 105.061 14.6039C105.183 14.7437 105.489 15.1983 105.979 15.9676C105.996 15.9851 106.014 16.0113 106.031 16.0462C106.049 16.0812 106.057 16.1074 106.057 16.1249C106.075 16.1599 106.092 16.1949 106.11 16.2298C106.145 16.2473 106.171 16.2648 106.189 16.2823C106.451 16.8242 106.766 17.6547 107.133 18.7736C107.168 18.8785 107.264 19.3244 107.421 20.1111C107.421 20.1286 107.439 20.1635 107.474 20.216C107.509 20.251 107.535 20.2947 107.552 20.3471C107.587 20.3821 107.613 20.3996 107.631 20.3996C107.701 20.5394 107.762 20.7317 107.815 20.9765C107.832 21.0464 107.832 21.1076 107.815 21.1601C107.797 21.1951 107.797 21.2475 107.815 21.3174L107.867 21.3699C107.884 21.4398 107.911 21.5535 107.946 21.7108C107.981 21.8507 108.016 21.9731 108.051 22.078V22.2878C108.016 22.2703 107.989 22.2703 107.972 22.2878C108.077 22.3577 108.147 22.5413 108.182 22.8385C108.252 23.2406 108.356 23.6252 108.496 23.9924C108.514 24.0099 108.523 24.0448 108.523 24.0973C108.54 24.1322 108.558 24.1672 108.575 24.2022C108.575 24.2197 108.584 24.2459 108.601 24.2808C108.619 24.2983 108.636 24.3158 108.654 24.3333C108.654 24.3683 108.654 24.3945 108.654 24.412C108.671 24.412 108.689 24.3857 108.706 24.3333C108.741 24.2634 108.767 24.2109 108.785 24.1759C108.82 24.1235 108.863 24.0623 108.916 23.9924C108.986 23.9224 109.03 23.8787 109.047 23.8612C109.1 23.7738 109.143 23.6952 109.178 23.6252C109.213 23.5553 109.239 23.4941 109.257 23.4417C109.292 23.3717 109.318 23.328 109.336 23.3105C109.353 23.293 109.371 23.2756 109.388 23.2581C109.423 23.2231 109.449 23.1969 109.467 23.1794C109.642 22.8822 109.808 22.585 109.965 22.2878L109.939 22.2615L110.122 21.9993C110.577 21.1776 111.005 20.1548 111.407 18.931C111.635 18.3016 111.748 17.9781 111.748 17.9607L111.722 17.8295C111.739 17.7771 111.766 17.7246 111.801 17.6722C111.836 17.6197 111.853 17.5848 111.853 17.5673C111.941 17.2701 112.037 16.9379 112.142 16.5707C112.264 16.2036 112.351 15.9064 112.404 15.6791C112.439 15.5742 112.483 15.4081 112.535 15.1808C112.587 14.9361 112.622 14.77 112.64 14.6826C112.657 14.5777 112.684 14.429 112.719 14.2367C112.754 14.0269 112.788 13.8521 112.823 13.7122C112.858 13.5549 112.893 13.45 112.928 13.3975V13.2926V13.214C112.928 13.1965 112.937 13.1877 112.955 13.1877L112.981 13.214C112.981 13.1965 112.981 13.1615 112.981 13.1091C112.981 13.0566 112.981 13.0216 112.981 13.0042C112.998 12.9867 113.016 12.9692 113.033 12.9517C113.068 12.9342 113.094 12.9255 113.112 12.9255C113.129 12.873 113.138 12.8293 113.138 12.7944C113.156 12.7594 113.164 12.7332 113.164 12.7157C113.164 12.6982 113.173 12.6807 113.191 12.6632C113.208 12.6458 113.234 12.637 113.269 12.637C113.287 12.6195 113.295 12.602 113.295 12.5846C113.295 12.5496 113.304 12.5321 113.322 12.5321C113.357 12.4972 113.462 12.4709 113.636 12.4534C113.829 12.436 113.934 12.4447 113.951 12.4797C113.969 12.4972 114.021 12.5321 114.108 12.5846C114.196 12.6545 114.257 12.7332 114.292 12.8206C114.292 12.8381 114.301 12.8381 114.318 12.8206H114.371C114.388 12.8381 114.406 12.8818 114.423 12.9517C114.441 13.0042 114.458 13.0391 114.476 13.0566C114.511 13.1265 114.581 13.2402 114.685 13.3975C114.808 13.5374 114.895 13.6685 114.948 13.7909C115 13.9133 115.026 14.0269 115.026 14.1318C115.009 14.7263 114.904 15.4431 114.712 16.2823C114.624 16.6669 114.344 17.5061 113.872 18.7999C113.593 19.5516 113.444 19.945 113.427 19.98C113.304 20.2597 112.858 21.1776 112.089 22.7336C112.072 22.7685 112.037 22.821 111.984 22.8909C111.949 22.9434 111.923 22.9871 111.906 23.0221C111.888 23.057 111.862 23.1095 111.827 23.1794C111.809 23.2493 111.792 23.293 111.774 23.3105C111.023 24.5693 110.175 25.7407 109.231 26.8247C108.951 27.1394 108.453 27.6027 107.736 28.2146C107.701 28.2495 107.657 28.302 107.605 28.3719C107.57 28.4244 107.535 28.4768 107.5 28.5293L107.421 28.6079C107.246 28.8003 107.028 28.9926 106.766 29.1849C106.678 29.2373 106.608 29.2723 106.556 29.2898C106.503 29.3073 106.433 29.3422 106.346 29.3947L106.293 29.4734C105.874 29.7531 105.585 29.9367 105.428 30.0241C105.411 30.0416 105.376 30.0591 105.323 30.0765C105.288 30.094 105.262 30.1115 105.244 30.129H105.192L105.166 30.0765C105.061 30.2164 104.842 30.3563 104.51 30.4961C103.898 30.7234 103.383 30.907 102.963 31.0469C102.928 31.0643 102.875 31.0818 102.806 31.0993C102.736 31.1168 102.683 31.1343 102.648 31.1518C102.631 31.1518 102.605 31.1605 102.57 31.178C102.535 31.1955 102.491 31.2042 102.438 31.2042C102.421 31.2042 102.299 31.2217 102.071 31.2567C101.896 31.2741 101.643 31.3091 101.311 31.3616C101.276 31.379 101.223 31.3965 101.153 31.414C101.101 31.414 101.057 31.414 101.022 31.414C100.97 31.414 100.909 31.4227 100.839 31.4402C100.769 31.4577 100.725 31.4752 100.708 31.4927C100.288 31.5102 99.8596 31.4577 99.4226 31.3353C99.0729 31.2304 98.8456 31.143 98.7407 31.0731C98.6533 31.0031 98.5921 30.9594 98.5571 30.942C98.5222 30.907 98.5397 30.8283 98.6096 30.7059L98.5047 30.601L98.3998 30.4699C98.4348 30.4349 98.5222 30.3475 98.662 30.2077C98.8194 30.0503 98.9505 29.9454 99.0554 29.893ZM119.987 21.8682C120.057 21.7807 120.144 21.7108 120.249 21.6584C120.354 21.6059 120.459 21.5622 120.564 21.5272C120.669 21.4748 120.73 21.4398 120.747 21.4223C120.765 21.4223 120.8 21.4136 120.852 21.3961L120.957 21.3699V21.3437C120.975 21.3437 121.009 21.3349 121.062 21.3174C121.114 21.3 121.149 21.2912 121.167 21.2912V21.265L121.298 21.2388C121.315 21.2388 121.333 21.23 121.35 21.2125C121.595 21.1426 122.067 21.0377 122.767 20.8978C123.466 20.758 123.982 20.6181 124.314 20.4782L124.419 20.3996C124.716 20.2247 124.9 20.1111 124.969 20.0586C125.039 20.0062 125.162 19.8926 125.337 19.7177C125.529 19.5254 125.643 19.403 125.678 19.3506C125.852 19.0883 125.957 18.8261 125.992 18.5638C126.027 18.424 126.036 18.3278 126.018 18.2754C126.018 18.2404 125.966 18.0218 125.861 17.6197C125.791 17.375 125.686 17.1302 125.546 16.8854C125.372 16.5533 125.144 16.2473 124.865 15.9676C124.83 15.9326 124.795 15.9064 124.76 15.8889C124.725 15.8714 124.69 15.8539 124.655 15.8364C124.637 15.819 124.602 15.7927 124.55 15.7578C124.515 15.7053 124.489 15.6791 124.471 15.6791C124.436 15.6441 124.331 15.5829 124.156 15.4955C124.139 15.4955 124.122 15.4868 124.104 15.4693C124.087 15.4518 124.078 15.4343 124.078 15.4168C123.885 15.3469 123.693 15.2945 123.501 15.2595L123.344 15.2333C122.627 15.2857 121.875 15.5217 121.088 15.9413C121.036 15.9588 120.931 16.0113 120.773 16.0987C120.634 16.1686 120.537 16.2211 120.485 16.256L120.433 16.2823C120.398 16.2998 120.363 16.3172 120.328 16.3347C120.293 16.3522 120.266 16.3609 120.249 16.3609C119.829 16.5183 119.419 16.6232 119.016 16.6756C118.702 16.7281 118.448 16.7456 118.256 16.7281C117.679 16.6756 117.312 16.597 117.154 16.4921C117.137 16.4921 117.102 16.4833 117.05 16.4658C116.997 16.4484 116.962 16.4396 116.945 16.4396V16.4134L116.866 16.3872C116.796 16.3697 116.752 16.3609 116.735 16.3609C116.735 16.3435 116.726 16.326 116.709 16.3085C116.691 16.291 116.682 16.2735 116.682 16.256C116.647 16.2386 116.604 16.2211 116.551 16.2036C116.516 16.1686 116.49 16.1511 116.473 16.1511C116.455 16.1337 116.438 16.1249 116.42 16.1249C116.42 16.1074 116.411 16.09 116.394 16.0725C116.394 16.055 116.376 16.0375 116.341 16.02L116.315 15.9938C116.28 15.9588 116.272 15.8889 116.289 15.784C116.324 15.6616 116.359 15.6092 116.394 15.6266C116.411 15.6266 116.464 15.6179 116.551 15.6004C116.621 15.5829 116.7 15.5829 116.787 15.6004C116.805 15.6004 116.814 15.6004 116.814 15.6004C116.814 15.5829 116.814 15.5655 116.814 15.548C116.831 15.5655 116.866 15.5829 116.918 15.6004C116.971 15.6004 117.006 15.6004 117.023 15.6004C117.093 15.6004 117.242 15.5917 117.469 15.5742C117.696 15.5567 117.828 15.5655 117.863 15.6004C118.352 15.7403 118.702 15.784 118.912 15.7315C119.121 15.6791 119.497 15.5043 120.039 15.207C120.441 15.0147 120.677 14.9011 120.747 14.8661C121.412 14.6039 122.198 14.3853 123.107 14.2105C123.142 14.2105 123.169 14.2105 123.186 14.2105C123.221 14.2105 123.247 14.2105 123.265 14.2105C123.3 14.2105 123.326 14.2018 123.344 14.1843C123.378 14.1843 123.422 14.1843 123.475 14.1843C123.527 14.1668 123.571 14.1581 123.606 14.1581C124.113 14.1755 124.681 14.2804 125.31 14.4728C125.957 14.6651 126.464 14.8836 126.831 15.1284C127.251 15.4081 127.644 15.8889 128.012 16.5707C128.029 16.6232 128.09 16.7019 128.195 16.8068L128.326 16.9903C128.466 17.3225 128.519 17.6372 128.484 17.9344C128.484 18.0568 128.457 18.1442 128.405 18.1967C128.37 18.2491 128.344 18.3365 128.326 18.4589V18.5638C128.169 18.9659 127.977 19.3156 127.749 19.6128C127.714 19.6303 127.679 19.6565 127.644 19.6915C127.609 19.7265 127.574 19.7614 127.539 19.7964L127.487 19.8226C127.505 19.7702 127.505 19.7352 127.487 19.7177L127.435 19.7964C127.365 20.0062 127.129 20.2247 126.727 20.452C125.992 20.8891 125.258 21.265 124.524 21.5797C124.506 21.5972 124.462 21.6147 124.392 21.6321C124.725 21.7895 125.083 22.0343 125.468 22.3664C125.835 22.6636 126.088 22.9346 126.228 23.1794C126.683 23.9137 126.954 24.849 127.041 25.9855C127.041 26.0204 127.041 26.0554 127.041 26.0904C127.041 26.1253 127.032 26.169 127.015 26.2215C127.015 26.2739 127.015 26.3089 127.015 26.3264C127.015 26.3788 127.015 26.4488 127.015 26.5362C127.015 26.6236 127.015 26.676 127.015 26.6935C126.805 27.4278 126.412 28.2233 125.835 29.08C125.258 29.9192 124.698 30.5224 124.156 30.8895C123.964 31.0119 123.772 31.108 123.58 31.178C123.405 31.2479 123.186 31.3091 122.924 31.3616C122.662 31.3965 122.496 31.4227 122.426 31.4402C122.391 31.4577 122.338 31.4752 122.268 31.4927C122.198 31.5276 122.137 31.5626 122.085 31.5976L122.006 31.6238C121.744 31.7112 121.455 31.7724 121.141 31.8074C121.036 31.8249 120.957 31.8249 120.905 31.8074C120.852 31.8074 120.773 31.8161 120.669 31.8336L120.564 31.8598C120.057 31.9123 119.698 31.9385 119.488 31.9385C119.453 31.9385 119.41 31.9385 119.357 31.9385C119.322 31.9385 119.287 31.9385 119.252 31.9385H119.2V31.886C119.025 31.9385 118.745 31.9472 118.361 31.9123C118.186 31.8948 117.906 31.8686 117.522 31.8336C117.137 31.8161 116.84 31.7986 116.63 31.7811C116.577 31.7637 116.508 31.7374 116.42 31.7025C116.333 31.685 116.28 31.6675 116.263 31.65C116.245 31.65 116.202 31.6413 116.132 31.6238C116.079 31.6238 116.027 31.6063 115.974 31.5714C115.887 31.5364 115.738 31.4577 115.529 31.3353C115.021 30.9857 114.724 30.7759 114.637 30.7059C114.584 30.671 114.514 30.6185 114.427 30.5486C114.357 30.4786 114.313 30.4349 114.296 30.4175C114.243 30.365 114.165 30.3126 114.06 30.2601C113.955 30.1902 113.894 30.1377 113.876 30.1028C113.614 29.7881 113.431 29.4297 113.326 29.0275C113.238 28.6254 113.212 28.2932 113.247 28.031C113.317 27.4715 113.439 27.0694 113.614 26.8247C113.632 26.8247 113.667 26.7897 113.719 26.7198C113.771 26.6323 113.824 26.5537 113.876 26.4837C113.894 26.4488 113.92 26.4313 113.955 26.4313C113.99 26.4138 114.016 26.4051 114.034 26.4051C114.069 26.4051 114.104 26.4225 114.139 26.4575C114.191 26.475 114.226 26.4837 114.243 26.4837C114.261 26.4837 114.278 26.475 114.296 26.4575C114.313 26.44 114.331 26.4138 114.348 26.3788C114.383 26.3439 114.41 26.3176 114.427 26.3002L114.637 26.1166C114.724 26.204 114.864 26.3264 115.056 26.4837C115.249 26.6236 115.406 26.7635 115.529 26.9033C115.581 26.9558 115.625 27.0607 115.66 27.218C115.712 27.3754 115.756 27.4715 115.791 27.5065V27.5589C115.791 27.5939 115.791 27.6201 115.791 27.6376H115.817H115.843V27.6901V27.7425C115.843 27.76 115.852 27.7687 115.869 27.7687L115.896 27.7425C115.913 27.76 115.922 27.7862 115.922 27.8212C115.922 27.8387 115.922 27.8562 115.922 27.8736C115.992 27.9785 116.114 28.2146 116.289 28.5817C116.481 28.9489 116.665 29.281 116.84 29.5783C117.032 29.8755 117.224 30.129 117.417 30.3388H117.469C117.487 30.3563 117.522 30.3912 117.574 30.4437C117.626 30.4786 117.67 30.5049 117.705 30.5224C117.74 30.5398 117.775 30.5573 117.81 30.5748C117.845 30.5748 117.88 30.5748 117.915 30.5748C117.967 30.5748 118.002 30.5748 118.02 30.5748C118.037 30.5923 118.099 30.6185 118.203 30.6535C118.326 30.671 118.413 30.6797 118.466 30.6797C118.833 30.7147 119.226 30.7409 119.646 30.7584C119.96 30.7584 120.17 30.7496 120.275 30.7322C120.835 30.6797 121.342 30.5835 121.796 30.4437C122.321 30.2688 122.688 30.0678 122.898 29.8405C123.055 29.6657 123.344 29.1936 123.763 28.4244C123.798 28.3719 123.824 28.3107 123.842 28.2408C123.859 28.1534 123.877 28.0922 123.894 28.0572C123.912 28.0048 123.938 27.9436 123.973 27.8736C124.008 27.8037 124.034 27.7513 124.052 27.7163C124.069 27.6464 124.095 27.4803 124.13 27.218C124.13 27.1831 124.139 27.1568 124.156 27.1394C124.191 27.1219 124.209 27.1044 124.209 27.0869C124.244 26.8421 124.261 26.5974 124.261 26.3526H124.235H124.209L124.261 26.169C124.261 25.6096 124.13 24.9977 123.868 24.3333C123.746 24.0186 123.676 23.8438 123.658 23.8088L123.606 23.7826C123.588 23.7651 123.58 23.7389 123.58 23.7039C123.58 23.6514 123.571 23.6252 123.553 23.6252C123.309 23.2231 123.107 22.9346 122.95 22.7598C122.863 22.6549 122.714 22.5587 122.504 22.4713C122.417 22.4364 122.286 22.4014 122.111 22.3664L121.849 22.3402L121.796 22.3664H121.744V22.3402L121.691 22.3664L121.639 22.3927L121.613 22.3664H121.586H121.403H121.377L121.35 22.3927C121.315 22.3752 121.272 22.3315 121.219 22.2615C120.922 22.3315 120.765 22.3752 120.747 22.3927C120.642 22.4101 120.529 22.4364 120.406 22.4713C120.319 22.5063 120.275 22.4888 120.275 22.4189C120.258 22.4189 120.249 22.4189 120.249 22.4189C120.249 22.4014 120.17 22.4189 120.013 22.4713L119.724 22.55C119.759 22.4801 119.786 22.3927 119.803 22.2878C119.838 22.1829 119.864 22.1042 119.882 22.0517C119.899 21.9818 119.934 21.9206 119.987 21.8682Z" fill="#191E34"/>
<path d="M62.9015 15.6358C62.8834 15.7622 62.8473 15.9879 62.7931 16.313C62.757 16.5117 62.5584 17.1528 62.1972 18.2364C62.0527 18.7059 61.9443 19.0129 61.8721 19.1574C61.6734 19.6811 61.5651 20.0333 61.547 20.2139C61.529 20.2139 61.5109 20.2319 61.4928 20.2681C61.4928 20.2861 61.4928 20.3042 61.4928 20.3222C61.4928 20.3403 61.4928 20.3674 61.4928 20.4035C61.4928 20.4216 61.4928 20.4396 61.4928 20.4577C61.4928 20.4938 61.3032 21.153 60.924 22.4352C60.9059 22.4894 60.7343 22.8686 60.4093 23.573C60.4093 23.6091 60.4093 23.6542 60.4093 23.7084C60.4093 23.7445 60.4093 23.7897 60.4093 23.8439L60.4364 23.9251C60.4183 24.0516 60.3912 24.187 60.3551 24.3315C61.9624 24.5301 63.4252 24.4398 64.7436 24.0606L64.8248 24.0064C64.879 23.9883 64.9693 23.9613 65.0957 23.9251C65.2222 23.889 65.3305 23.8619 65.4208 23.8439C65.475 23.8077 65.5563 23.7716 65.6646 23.7355C65.773 23.6994 65.8452 23.6723 65.8813 23.6542L66.4231 23.4375C66.8565 23.2027 67.2177 22.9409 67.5067 22.6519C67.6873 22.4533 67.8137 22.2727 67.8859 22.1101C68.1027 21.6045 68.2381 20.9634 68.2923 20.1868C68.3103 19.934 68.2652 19.4915 68.1568 18.8594C68.0485 18.2996 67.9762 17.9564 67.9401 17.83C67.9221 17.7939 67.895 17.7578 67.8589 17.7217C67.8408 17.6855 67.8227 17.6585 67.8047 17.6404C67.7866 17.6043 67.7686 17.5591 67.7505 17.5049C67.7324 17.4327 67.7234 17.3876 67.7234 17.3695C67.6873 17.3153 67.588 17.216 67.4254 17.0715C67.4074 17.0535 67.3893 17.0264 67.3712 16.9902C67.3712 16.9541 67.3622 16.9361 67.3442 16.9361C67.1636 16.7555 66.9559 16.5839 66.7211 16.4214L66.694 16.4485L66.4773 16.313C65.5201 15.8976 64.4275 15.6719 63.1995 15.6358C63.1092 15.6358 63.0099 15.6358 62.9015 15.6358ZM55.2623 31.1851C55.2262 31.149 55.2171 31.0406 55.2352 30.86C55.2713 30.6794 55.2803 30.5801 55.2623 30.562L55.3165 30.5079L55.3436 30.4537C55.3436 30.4356 55.3345 30.4266 55.3165 30.4266C55.3165 30.4085 55.3255 30.3814 55.3436 30.3453L55.3706 30.2911L55.3436 30.2641L55.3706 30.2099C55.3887 30.1738 55.4068 30.1467 55.4248 30.1286C55.4971 29.8397 55.5964 29.5146 55.7228 29.1534C55.8673 28.7741 56.0388 28.3317 56.2375 27.826C56.4542 27.3203 56.6077 26.9591 56.698 26.7424L56.6709 26.6612C56.689 26.607 56.7161 26.5438 56.7522 26.4715C56.7883 26.3812 56.8154 26.309 56.8335 26.2548C56.8515 26.2187 56.8696 26.1645 56.8877 26.0923C56.9057 26.002 56.9238 25.9388 56.9418 25.9027C56.9599 25.8665 56.987 25.8033 57.0231 25.713C57.0773 25.6227 57.1134 25.5595 57.1315 25.5234C57.1856 25.3789 57.2488 25.2164 57.3211 25.0358C57.4114 24.8371 57.4746 24.7017 57.5107 24.6295C57.5288 24.5933 57.5649 24.5301 57.6191 24.4398C57.6732 24.3315 57.7094 24.2502 57.7274 24.196C57.7274 24.1599 57.8267 23.7716 58.0254 23.0312C58.0435 22.9589 58.0796 22.7964 58.1338 22.5436C58.206 22.2727 58.2602 22.074 58.2963 21.9476C58.3505 21.8031 58.4137 21.6135 58.4859 21.3787C58.5762 21.1259 58.6394 20.9543 58.6756 20.864C58.6756 20.8279 58.6756 20.7918 58.6756 20.7557C58.6756 20.7196 58.6846 20.6834 58.7026 20.6473C58.7026 20.6112 58.7207 20.5751 58.7568 20.539L58.811 20.4848C58.8291 20.4306 58.8381 20.3855 58.8381 20.3493C58.8561 20.2952 58.8652 20.259 58.8652 20.241C58.8652 20.2049 58.8652 20.1778 58.8652 20.1597C58.8652 20.1416 58.8742 20.1326 58.8923 20.1326C58.9284 20.1146 58.9464 20.0965 58.9464 20.0784C59.0187 19.8798 59.0729 19.7353 59.109 19.645H59.0819H59.0548L59.1632 19.5096C59.3257 19.2025 59.4792 18.7601 59.6237 18.1822C59.6417 18.128 59.6688 18.0467 59.7049 17.9384C59.7411 17.83 59.7682 17.7397 59.7862 17.6675C59.8043 17.5772 59.8223 17.5049 59.8404 17.4508L59.8133 17.3695C59.8133 17.3334 59.8223 17.2973 59.8404 17.2611C59.8765 17.207 59.8946 17.1708 59.8946 17.1528C60.0029 16.7735 60.1203 16.3582 60.2467 15.9067C59.8855 15.9789 59.4702 16.0692 59.0006 16.1776C58.82 16.2137 58.3776 16.3401 57.6732 16.5568C57.4926 16.6291 57.1766 16.7555 56.7251 16.9361C56.2917 17.0986 56.0388 17.1889 55.9666 17.207C55.9486 17.207 55.9034 17.225 55.8312 17.2611C55.7589 17.2973 55.7138 17.3244 55.6957 17.3424V17.3153C55.6777 17.3153 55.6325 17.3334 55.5603 17.3695C55.488 17.4056 55.4429 17.4327 55.4248 17.4508C55.4068 17.4508 55.3797 17.4508 55.3436 17.4508C55.3255 17.4508 55.3074 17.4508 55.2894 17.4508L54.883 17.5862C54.865 17.5862 54.8379 17.5952 54.8018 17.6133L54.7476 17.6404C54.7115 17.6404 54.6663 17.6223 54.6121 17.5862C54.558 17.5501 54.5128 17.514 54.4767 17.4779C54.4586 17.4237 54.4586 17.3876 54.4767 17.3695C54.4948 17.3514 54.5309 17.3063 54.5851 17.2341C54.6392 17.1438 54.7115 17.0625 54.8018 16.9902C54.8198 16.9722 54.8198 16.9632 54.8018 16.9632C54.7837 16.9632 54.7837 16.9541 54.8018 16.9361C54.8018 16.918 54.8379 16.8909 54.9101 16.8548C54.9824 16.8006 55.0275 16.7645 55.0456 16.7464C55.0998 16.7103 55.2081 16.62 55.3706 16.4755C55.5332 16.313 55.6686 16.1866 55.777 16.0963C55.9034 16.006 56.0388 15.9338 56.1833 15.8796C57.0321 15.5184 57.917 15.2204 58.8381 14.9856C59.416 14.8412 60.03 14.7238 60.6802 14.6335C60.6982 14.6154 60.7163 14.6064 60.7343 14.6064C60.7343 14.5883 60.7343 14.5793 60.7343 14.5793V14.5522H60.7614H60.7885C60.8066 14.5522 60.8066 14.5432 60.7885 14.5251C60.8066 14.5071 60.8246 14.5071 60.8427 14.5251H60.8969C60.9872 14.5071 61.0414 14.498 61.0594 14.498C61.0775 14.498 61.0955 14.498 61.1136 14.498L61.1949 14.5251C61.249 14.5251 61.3032 14.5251 61.3574 14.5251C61.538 14.5071 61.7637 14.489 62.0346 14.4709C62.6306 14.3987 63.1092 14.3626 63.4704 14.3626C64.4275 14.3806 65.5111 14.489 66.7211 14.6876C66.7753 14.6876 66.8385 14.6967 66.9107 14.7147C66.983 14.7328 67.0371 14.7418 67.0733 14.7418C67.1094 14.7599 67.1636 14.7779 67.2358 14.796C67.308 14.796 67.3622 14.805 67.3983 14.8231C68.1207 15.0579 68.8521 15.4371 69.5926 15.9609C70.3511 16.4846 70.8567 17.0173 71.1096 17.5591C71.1638 17.6855 71.2089 17.812 71.245 17.9384C71.2811 18.0648 71.3082 18.1822 71.3263 18.2905C71.3444 18.3808 71.3534 18.4982 71.3534 18.6427C71.3534 18.7872 71.3534 18.8955 71.3534 18.9678C71.3534 19.022 71.3353 19.1303 71.2992 19.2928C71.2811 19.4554 71.2721 19.5547 71.2721 19.5908C71.2721 19.6269 71.245 19.7353 71.1908 19.9159C71.1547 20.0784 71.1367 20.1687 71.1367 20.1868C71.1367 20.241 71.1276 20.3403 71.1096 20.4848C71.1096 20.6112 71.1006 20.7376 71.0825 20.864V21.0266C70.9019 21.6406 70.6581 22.1372 70.3511 22.5165C70.2247 22.661 70.1163 22.7603 70.026 22.8145C69.9538 22.8686 69.8544 22.9589 69.728 23.0854L69.6468 23.2208C69.1772 23.582 68.7438 23.88 68.3465 24.1148C68.3103 24.1328 68.2562 24.1599 68.1839 24.196C68.1297 24.2141 68.0846 24.2321 68.0485 24.2502L67.9672 24.2773L67.9401 24.2231C67.7776 24.3857 67.4525 24.5392 66.9649 24.6836C65.7549 25.0629 65.0596 25.2796 64.879 25.3338C64.861 25.3338 64.8068 25.3518 64.7165 25.388C64.6262 25.406 64.563 25.4241 64.5269 25.4421C64.5088 25.4421 64.4727 25.4602 64.4185 25.4963C64.3643 25.5144 64.3011 25.5415 64.2289 25.5776C63.976 25.6498 63.669 25.713 63.3078 25.7672C62.6577 25.8756 62.1069 25.9478 61.6554 25.9839C61.6193 25.9839 61.4206 25.993 61.0594 26.011C60.9872 26.011 60.8879 26.02 60.7614 26.0381C60.635 26.0562 60.5447 26.0562 60.4905 26.0381C60.2016 26.02 59.9126 25.9749 59.6237 25.9027C59.6237 25.993 59.5605 26.1645 59.4341 26.4174C59.1993 26.8508 59.0006 27.3113 58.8381 27.7989C58.82 27.835 58.7929 27.8892 58.7568 27.9615C58.7207 28.0156 58.7026 28.0518 58.7026 28.0698C58.6846 28.1059 58.6756 28.1511 58.6756 28.2053C58.6756 28.2414 58.6665 28.2775 58.6485 28.3136C58.6304 28.3497 58.5943 28.4039 58.5401 28.4762C58.4859 28.5484 58.4498 28.6026 58.4317 28.6387C58.3053 28.8554 58.206 29.0992 58.1338 29.3701C58.1157 29.4062 58.0886 29.4514 58.0525 29.5055C58.0344 29.5597 58.0254 29.6139 58.0254 29.6681C58.0073 29.7223 57.9983 29.7855 57.9983 29.8577C57.9983 29.9299 57.9983 29.9751 57.9983 29.9932C57.89 30.2641 57.6371 30.6433 57.2398 31.1309C56.9689 31.456 56.8064 31.6366 56.7522 31.6727C56.68 31.7269 56.6168 31.7811 56.5626 31.8352C56.5265 31.8714 56.4362 31.8443 56.2917 31.754L56.1291 31.8352L55.9937 31.9165C55.9215 31.8623 55.8312 31.7901 55.7228 31.6998C55.6325 31.6095 55.5422 31.5282 55.4519 31.456C55.3797 31.3657 55.3165 31.2754 55.2623 31.1851ZM64.4151 35.0589C64.4512 35.1672 64.4693 35.3117 64.4693 35.4923C64.4693 35.6729 64.4783 35.7722 64.4964 35.7903C64.4964 35.8083 64.4964 35.8264 64.4964 35.8445C64.4964 35.8806 64.4964 35.9077 64.4964 35.9257H64.5235H64.5506V35.9799V36.007H64.5777H64.6047L64.6318 36.0612C64.6138 36.0792 64.6409 36.1063 64.7131 36.1424C64.7673 36.1966 64.8666 36.2418 65.0111 36.2779C65.1375 36.3321 65.3 36.3772 65.4987 36.4133C65.6973 36.4675 65.9231 36.4946 66.1759 36.4946C66.4468 36.5127 66.7358 36.5036 67.0428 36.4675L67.1511 36.4133C67.1692 36.4133 67.2505 36.3953 67.3949 36.3592C67.5575 36.323 67.6839 36.2869 67.7742 36.2508C67.8464 36.2327 67.9367 36.1966 68.0451 36.1424C68.1535 36.1063 68.2257 36.0792 68.2618 36.0612C68.2979 36.0612 68.3882 36.0341 68.5327 35.9799C68.6772 35.9438 68.7855 35.9077 68.8578 35.8716C69.3093 35.691 69.6885 35.5104 69.9955 35.3298C70.1761 35.2214 70.3025 35.1311 70.3748 35.0589C70.6637 34.7699 70.9617 34.4087 71.2687 33.9753C71.4493 33.7044 71.7112 33.2619 72.0543 32.6479C72.3975 32.0339 72.6774 31.5011 72.8941 31.0496C72.9122 30.9955 72.9302 30.9413 72.9483 30.8871C72.9663 30.8149 72.9844 30.7607 73.0025 30.7246C73.0205 30.6704 73.0476 30.6072 73.0837 30.5349C73.1379 30.4627 73.174 30.4176 73.1921 30.3995C73.2101 30.3273 73.2282 30.255 73.2463 30.1828C73.2824 30.1105 73.3095 30.0473 73.3275 29.9932C73.3456 29.939 73.3546 29.9029 73.3546 29.8848C73.3727 29.8667 73.3907 29.8487 73.4088 29.8306C73.4449 29.7945 73.463 29.7674 73.463 29.7494C73.5894 29.4604 73.6977 29.1895 73.788 28.9367H73.761V28.9096L73.8964 28.6929C73.9325 28.5664 73.9777 28.431 74.0318 28.2865C73.9777 28.3588 73.9145 28.431 73.8422 28.5032L73.788 28.5845C73.7158 28.6387 73.6345 28.7019 73.5442 28.7741C73.4539 28.8464 73.3817 28.9006 73.3275 28.9367C73.3095 28.9728 73.2553 29.027 73.165 29.0992C73.0928 29.1534 73.0295 29.1985 72.9754 29.2347C72.9573 29.2527 72.8128 29.352 72.5419 29.5326C72.1266 29.7674 71.8015 29.948 71.5667 30.0744C71.5125 30.1105 71.4313 30.1557 71.3229 30.2099C71.2146 30.246 71.1423 30.2731 71.1062 30.2911C70.5283 30.562 70.2032 30.7155 70.131 30.7517C69.8059 30.8781 69.5531 30.9593 69.3725 30.9955C68.9571 31.0858 68.5327 31.149 68.0993 31.1851C67.8464 31.2031 67.6388 31.167 67.4762 31.0767C67.3137 30.9864 67.1873 30.842 67.097 30.6433C66.9705 30.3182 66.9073 30.0835 66.9073 29.939C66.8893 29.9029 66.8893 29.8667 66.9073 29.8306C66.9435 29.7945 66.9615 29.7674 66.9615 29.7494C66.9976 29.4785 67.0608 29.1444 67.1511 28.747H67.1241H67.097C67.097 28.7109 67.106 28.6748 67.1241 28.6387C67.1602 28.5845 67.1873 28.5394 67.2053 28.5032L67.2324 28.4491C67.5936 27.4738 67.9187 26.3451 68.2076 25.0629C68.334 24.5211 68.3973 24.196 68.3973 24.0877L68.3702 24.0064C68.3702 23.9522 68.3792 23.9071 68.3973 23.871C68.4153 23.8168 68.4243 23.7807 68.4243 23.7626C68.4424 23.2208 68.4785 22.9048 68.5327 22.8145C68.5327 22.7964 68.5688 22.7513 68.6411 22.679C68.7133 22.6068 68.7494 22.5436 68.7494 22.4894C68.7675 22.3269 68.5688 22.1914 68.1535 22.0831C68.1354 22.065 68.0993 22.065 68.0451 22.0831H67.9638C67.9458 22.065 67.9096 22.065 67.8555 22.0831C67.8013 22.1011 67.7652 22.1101 67.7471 22.1101C67.7291 22.1101 67.711 22.1101 67.6929 22.1101C67.6749 22.0921 67.6568 22.0831 67.6388 22.0831C67.5665 22.1011 67.5033 22.1192 67.4491 22.1372C67.3949 22.1372 67.3588 22.1372 67.3408 22.1372C67.3227 22.1372 67.2956 22.1372 67.2595 22.1372C67.2414 22.1192 67.2144 22.1101 67.1782 22.1101L67.1241 22.1372C67.0518 22.1372 66.9886 22.0921 66.9344 22.0018C66.8983 21.9657 66.8893 21.9386 66.9073 21.9205C66.9435 21.9025 66.9976 21.8663 67.0699 21.8122C67.1421 21.7399 67.2324 21.6857 67.3408 21.6496V21.6225H67.3137C67.3317 21.6045 67.3769 21.5864 67.4491 21.5684C67.5214 21.5322 67.5665 21.5142 67.5846 21.5142C67.6388 21.4961 67.7471 21.451 67.9096 21.3787C68.0722 21.2884 68.2076 21.2252 68.316 21.1891C68.4243 21.1349 68.5417 21.1078 68.6681 21.1078C69.824 21.0356 70.5644 21.3246 70.8895 21.9747C70.9798 22.1372 71.043 22.2998 71.0791 22.4623C71.1333 22.6248 71.1423 22.8235 71.1062 23.0583C71.0881 23.293 71.0701 23.4556 71.052 23.5459C71.052 23.6362 71.0069 23.8439 70.9166 24.1689C70.8443 24.476 70.8082 24.6475 70.8082 24.6836C70.6818 25.2435 70.5734 25.6589 70.4831 25.9297C69.9955 27.6635 69.7337 28.6116 69.6975 28.7741C69.6975 28.7922 69.6885 28.8373 69.6705 28.9096C69.6524 28.9638 69.6434 28.9999 69.6434 29.0179C69.6434 29.0902 69.6524 29.1714 69.6705 29.2617C69.6705 29.5507 69.4267 29.7674 68.939 29.9119C69.0293 29.9119 69.237 29.8577 69.5621 29.7494L69.6163 29.6952C69.6343 29.6771 69.6524 29.6591 69.6705 29.641C69.7066 29.6229 69.7246 29.6049 69.7246 29.5868C69.7969 29.5507 69.9233 29.4785 70.1039 29.3701C70.1581 29.352 70.2032 29.343 70.2393 29.343C70.2755 29.325 70.3206 29.3069 70.3748 29.2888L70.4019 29.2347C70.456 29.1985 70.6457 29.0721 70.9707 28.8554L71.1604 28.747L71.1875 28.8012C71.2236 28.729 71.3861 28.5755 71.6751 28.3407C72.0904 28.0156 72.4878 27.6364 72.867 27.2029C72.8851 27.1668 72.9212 27.1217 72.9754 27.0675C73.0476 26.9953 73.0927 26.9411 73.1108 26.905C73.1289 26.8869 73.1469 26.8598 73.165 26.8237C73.2011 26.7695 73.2372 26.7244 73.2733 26.6883C73.3095 26.6341 73.3636 26.5709 73.4359 26.4986C73.5081 26.4264 73.5623 26.3632 73.5984 26.309C73.8332 26.0381 74.0318 25.7492 74.1944 25.4421C74.3389 25.1893 74.4201 25.0629 74.4382 25.0629C74.4562 24.9906 74.4833 24.9094 74.5195 24.8191C74.5556 24.7107 74.5736 24.6385 74.5736 24.6024C74.682 24.3857 74.7994 24.1599 74.9258 23.9251C75.0703 23.6904 75.2148 23.4646 75.3592 23.2479C75.5037 23.0312 75.594 22.8867 75.6301 22.8145C75.7204 22.6881 75.8017 22.5436 75.8739 22.381C75.9642 22.2185 76.0365 22.0921 76.0906 22.0018C76.1448 21.9115 76.199 21.8392 76.2532 21.7851C76.3435 21.6587 76.4247 21.5322 76.497 21.4058C76.5331 21.3516 76.5783 21.3246 76.6324 21.3246C76.7227 21.1981 76.7859 21.1169 76.8221 21.0807C76.8401 21.0807 76.8582 21.0627 76.8762 21.0266C76.9124 20.9724 76.9304 20.9363 76.9304 20.9182L76.9575 20.9453C76.9756 20.9453 76.9936 20.9272 77.0117 20.8911C77.0478 20.8369 77.0659 20.8099 77.0659 20.8099C77.0839 20.7918 77.111 20.7828 77.1471 20.7828H77.1742C77.2103 20.7466 77.2465 20.7105 77.2826 20.6744C77.3368 20.6383 77.3819 20.6202 77.418 20.6202C77.4361 20.6383 77.4541 20.6383 77.4722 20.6202L77.4993 20.5931C77.5354 20.5931 77.6076 20.6202 77.716 20.6744C77.8244 20.7286 77.8785 20.7737 77.8785 20.8099C77.8785 20.8279 77.8966 20.864 77.9327 20.9182C77.9508 20.9904 77.9598 21.0627 77.9598 21.1349H77.9869C78.005 21.153 78.014 21.171 78.014 21.1891C78.014 21.1891 78.005 21.2162 77.9869 21.2704C77.9869 21.3065 77.9869 21.3336 77.9869 21.3516C78.005 21.3878 78.0411 21.5232 78.0953 21.758C78.1675 21.9747 78.1946 22.1282 78.1765 22.2185C78.1223 22.4172 78.0411 22.6971 77.9327 23.0583C77.8244 23.4195 77.7521 23.6723 77.716 23.8168C77.6438 24.0516 77.5264 24.4037 77.3638 24.8733C77.2194 25.3428 77.111 25.695 77.0388 25.9297C77.0027 26.0562 76.9575 26.2368 76.9033 26.4715C76.8491 26.6883 76.804 26.8508 76.7679 26.9591C76.6776 27.3023 76.5241 27.7628 76.3074 28.3407C76.1087 28.9186 76.0003 29.2166 75.9823 29.2347C75.9823 29.2708 75.9642 29.3159 75.9281 29.3701C75.91 29.4243 75.892 29.4604 75.8739 29.4785C75.8559 29.5326 75.8378 29.5868 75.8197 29.641C75.8197 29.6952 75.8197 29.7313 75.8197 29.7494C75.3141 31.0135 74.7181 32.1784 74.0318 33.2439C73.7971 33.6231 73.3636 34.1288 72.7316 34.7609C72.7135 34.7789 72.6774 34.8241 72.6232 34.8963C72.5871 34.9686 72.551 35.0318 72.5148 35.086L72.4607 35.1672C72.262 35.3839 72.0363 35.5826 71.7834 35.7632C71.6931 35.8354 71.6209 35.8716 71.5667 35.8716C71.5125 35.8896 71.4403 35.9348 71.35 36.007L71.2958 36.0612C71.2778 36.0792 71.1604 36.1334 70.9437 36.2237C70.745 36.314 70.5644 36.3953 70.4019 36.4675C70.3658 36.4856 70.3206 36.5036 70.2664 36.5217C70.2303 36.5398 70.1942 36.5578 70.1581 36.5759H70.131L70.1039 36.5217C69.9594 36.6481 69.6705 36.7745 69.237 36.901C68.4063 37.1538 67.6658 37.3524 67.0157 37.4969C66.9615 37.515 66.8802 37.533 66.7719 37.5511C66.6635 37.5692 66.5913 37.5782 66.5552 37.5782C66.5371 37.5782 66.492 37.5872 66.4197 37.6053C66.3656 37.6233 66.3114 37.6324 66.2572 37.6324C66.1488 37.6504 65.9682 37.6685 65.7154 37.6865C65.5348 37.6865 65.3271 37.6865 65.0923 37.6865C64.8576 37.7046 64.7221 37.7136 64.686 37.7136C64.6318 37.7136 64.5686 37.7136 64.4964 37.7136C64.4061 37.7136 64.3338 37.7136 64.2797 37.7136C64.2255 37.7136 64.1442 37.7227 64.0359 37.7407C63.9275 37.7588 63.8553 37.7678 63.8191 37.7678C63.3496 37.6775 62.9613 37.4427 62.6543 37.0635C62.3292 36.7023 62.1938 36.3772 62.248 36.0883C62.3383 35.6187 62.5369 35.2304 62.8439 34.9234C62.9884 34.7609 63.0877 34.6435 63.1419 34.5713C63.1961 34.499 63.2774 34.499 63.3857 34.5713C63.4038 34.5893 63.4218 34.5984 63.4399 34.5984L63.6566 34.4087C63.6747 34.3907 63.7108 34.3636 63.765 34.3275C63.8011 34.2913 63.8372 34.2643 63.8733 34.2462L63.9004 34.192C63.9365 34.2823 64.0268 34.4178 64.1713 34.5984C64.2977 34.7789 64.379 34.9325 64.4151 35.0589ZM85.9685 28.1511C85.8602 28.2956 85.7428 28.431 85.6164 28.5574C85.49 28.6838 85.3545 28.8012 85.21 28.9096C85.0836 28.9999 85.0023 29.0631 84.9662 29.0992C84.9482 29.1173 84.894 29.1534 84.8037 29.2076L84.6682 29.2888C84.6502 29.3069 84.6502 29.3159 84.6682 29.3159C84.6502 29.334 84.596 29.3701 84.5057 29.4243C84.4335 29.4785 84.3883 29.5055 84.3703 29.5055C84.3703 29.5236 84.3793 29.5326 84.3974 29.5326C84.3793 29.5507 84.3522 29.5688 84.3161 29.5868C84.28 29.6049 84.2348 29.632 84.1806 29.6681C84.1445 29.7042 84.1174 29.7223 84.0994 29.7223C83.2686 30.2641 82.3747 30.7336 81.4175 31.1309C80.4604 31.5102 79.6206 31.754 78.8982 31.8623L78.8169 31.8894C78.7989 31.8894 78.6454 31.8894 78.3564 31.8894C78.1036 31.8714 77.9681 31.8623 77.9501 31.8623C77.8056 31.8443 77.6611 31.8081 77.5166 31.754C77.1193 31.5914 76.8033 31.3837 76.5685 31.1309C76.4782 31.0406 76.397 30.8781 76.3247 30.6433C76.1261 30.1015 76.0358 29.632 76.0538 29.2347C76.0719 28.7109 76.1712 28.2143 76.3518 27.7447C76.4963 27.3474 76.7672 26.8056 77.1645 26.1194C77.2006 26.0833 77.2277 26.0381 77.2458 25.9839C77.2819 25.9117 77.318 25.8485 77.3541 25.7943C77.3902 25.7401 77.4354 25.6859 77.4896 25.6318C77.5618 25.5595 77.5979 25.5144 77.5979 25.4963C77.6882 25.406 77.7695 25.3067 77.8417 25.1983C77.914 25.09 77.9501 25.0268 77.9501 25.0087C77.9681 24.9906 77.9952 24.9726 78.0313 24.9545C78.0675 24.9365 78.0946 24.9184 78.1126 24.9004C78.3113 24.6656 78.537 24.4218 78.7898 24.1689L78.7628 24.1418L79.0066 23.9522C80.1443 23.0492 81.0563 22.4262 81.7426 22.0831C81.8329 22.0289 81.9412 21.9747 82.0677 21.9205C82.2121 21.8663 82.3476 21.8212 82.474 21.7851C82.6185 21.7309 82.7088 21.6948 82.7449 21.6767L82.8262 21.6225C82.8442 21.6225 82.9526 21.5954 83.1512 21.5413C83.2235 21.5232 83.395 21.4871 83.6659 21.4329C83.9368 21.3607 84.0903 21.3246 84.1265 21.3246C84.1806 21.3065 84.3341 21.2704 84.587 21.2162C84.8579 21.162 85.0204 21.153 85.0746 21.1891C85.1468 21.2072 85.3274 21.2072 85.6164 21.1891C85.8873 21.2252 86.095 21.4058 86.2394 21.7309C86.3839 22.056 86.402 22.3178 86.2936 22.5165C85.9505 23.2027 85.7157 23.6091 85.5893 23.7355L85.5622 23.8168C85.5441 23.871 85.5261 23.898 85.508 23.898H85.4809L85.4538 23.9793C85.4358 24.0335 85.4177 24.0696 85.3997 24.0877C85.3997 24.0877 85.3906 24.0967 85.3726 24.1148C85.3545 24.1148 85.3365 24.1148 85.3184 24.1148C85.2823 24.1689 85.2552 24.2141 85.2371 24.2502C85.2191 24.3044 85.192 24.3315 85.1559 24.3315C85.1378 24.3315 85.1197 24.3495 85.1017 24.3857V24.4127C85.0656 24.4308 84.9662 24.4308 84.8037 24.4127C84.6412 24.3947 84.5599 24.3676 84.5599 24.3315C84.5418 24.3315 84.5057 24.2954 84.4515 24.2231C84.3974 24.1328 84.3703 24.0425 84.3703 23.9522C84.3703 23.9342 84.3612 23.9251 84.3432 23.9251H84.289C84.289 23.9071 84.289 23.871 84.289 23.8168C84.3071 23.7445 84.3161 23.6994 84.3161 23.6813C84.3161 23.591 84.298 23.4646 84.2619 23.3021C84.2438 23.1215 84.2348 22.9951 84.2348 22.9228C84.2348 22.8325 84.2348 22.7151 84.2348 22.5707C84.2529 22.5345 84.2619 22.4894 84.2619 22.4352C83.7562 22.4533 83.3318 22.5345 82.9887 22.679C82.7178 22.7874 82.4198 22.9589 82.0948 23.1937C81.3362 23.7174 80.7313 24.2592 80.2798 24.8191L80.2256 24.9004C80.1714 24.9545 80.1353 24.9906 80.1172 25.0087C80.0992 25.0087 80.045 25.0809 79.9547 25.2254C79.2323 26.4174 78.7898 27.3565 78.6273 28.0427C78.4828 28.6387 78.4016 29.0089 78.3835 29.1534C78.3835 29.1714 78.3925 29.1985 78.4106 29.2347C78.4287 29.2527 78.4467 29.2798 78.4648 29.3159C78.5009 29.334 78.528 29.352 78.546 29.3701C78.5822 29.4604 78.6002 29.5507 78.6002 29.641C78.6002 29.6771 78.5822 29.7042 78.546 29.7223C78.528 29.7403 78.519 29.7584 78.519 29.7764C78.519 29.7945 78.528 29.8035 78.546 29.8035H78.5731C78.5551 29.8758 78.528 29.939 78.4919 29.9932L78.4377 30.1015C78.4196 30.1196 78.4016 30.1376 78.3835 30.1557C78.4196 30.1376 78.4287 30.1557 78.4106 30.2099C78.3925 30.3002 78.3835 30.3543 78.3835 30.3724C78.4738 30.6433 78.6905 30.7968 79.0337 30.8329C79.1239 30.851 79.2052 30.851 79.2775 30.8329C79.3136 30.8329 79.3497 30.8329 79.3858 30.8329C79.4219 30.8149 79.4581 30.8058 79.4942 30.8058L79.8463 30.7517C80.1353 30.6614 80.4152 30.553 80.6861 30.4266C80.8848 30.3182 81.0112 30.255 81.0654 30.237C81.1376 30.1828 81.2098 30.1286 81.2821 30.0744C81.3724 30.0022 81.4265 29.9661 81.4446 29.9661C81.7155 29.7855 82.0857 29.5597 82.5553 29.2888C83.0429 28.9999 83.3499 28.8193 83.4763 28.747C83.675 28.6206 83.9097 28.4671 84.1806 28.2865C84.4515 28.0879 84.6412 27.9524 84.7495 27.8802C84.912 27.7899 85.0656 27.6906 85.21 27.5822C85.3365 27.51 85.4087 27.51 85.4267 27.5822L85.4538 27.6093C85.4538 27.6274 85.5622 27.5641 85.7789 27.4197C85.815 27.4016 85.8602 27.3835 85.9144 27.3655C85.9866 27.3294 86.0408 27.2932 86.0769 27.2571C86.113 27.2391 86.1311 27.221 86.1311 27.2029C86.113 27.3113 86.095 27.4377 86.0769 27.5822C86.0769 27.7086 86.0679 27.817 86.0498 27.9073C86.0317 27.9976 86.0047 28.0788 85.9685 28.1511Z" fill="#191E34"/>
<path d="M55.147 48.5649V38.6053H58.9926C59.5505 38.6053 60.0369 38.7205 60.4519 38.9511C60.8669 39.1816 61.1897 39.4929 61.4202 39.8848C61.6508 40.2721 61.766 40.7009 61.766 41.1713C61.766 41.7061 61.6231 42.1834 61.3372 42.603C61.0513 43.018 60.6686 43.3061 60.1891 43.4675L60.1753 43.1286C60.8208 43.3131 61.328 43.6358 61.6969 44.0969C62.0658 44.558 62.2502 45.1159 62.2502 45.7707C62.2502 46.3471 62.128 46.8451 61.8836 47.2647C61.6392 47.6796 61.2957 48.0001 60.8531 48.226C60.4104 48.452 59.8963 48.5649 59.3107 48.5649H55.147ZM56.1706 47.5897H59.0617C59.4675 47.5897 59.8317 47.5183 60.1545 47.3753C60.4773 47.2278 60.7309 47.0203 60.9153 46.7528C61.1044 46.4854 61.1989 46.1626 61.1989 45.7845C61.1989 45.4157 61.1136 45.0837 60.943 44.7886C60.7724 44.4935 60.5395 44.2583 60.2444 44.0831C59.9539 43.9033 59.622 43.8133 59.2485 43.8133H56.1706V47.5897ZM56.1706 42.852H58.9856C59.3038 42.852 59.5943 42.7805 59.8571 42.6376C60.1199 42.49 60.3274 42.2894 60.4796 42.0358C60.6364 41.7822 60.7147 41.4894 60.7147 41.1574C60.7147 40.6871 60.5511 40.3044 60.2237 40.0093C59.9009 39.7142 59.4882 39.5667 58.9856 39.5667H56.1706V42.852ZM67.3861 48.7724C66.3947 48.7724 65.5578 48.5534 64.8754 48.1154C64.193 47.6727 63.6766 47.0618 63.3261 46.2825C62.9757 45.5033 62.8005 44.6041 62.8005 43.5851C62.8005 42.5661 62.9757 41.6669 63.3261 40.8877C63.6766 40.1084 64.193 39.4998 64.8754 39.0618C65.5578 38.6191 66.3947 38.3978 67.3861 38.3978C68.3821 38.3978 69.2189 38.6191 69.8968 39.0618C70.5792 39.4998 71.0956 40.1084 71.446 40.8877C71.8011 41.6669 71.9786 42.5661 71.9786 43.5851C71.9786 44.6041 71.8011 45.5033 71.446 46.2825C71.0956 47.0618 70.5792 47.6727 69.8968 48.1154C69.2189 48.5534 68.3821 48.7724 67.3861 48.7724ZM67.3861 47.7972C68.1653 47.7972 68.8155 47.6197 69.3365 47.2647C69.8576 46.9096 70.2472 46.4162 70.5054 45.7845C70.7682 45.1482 70.8996 44.4151 70.8996 43.5851C70.8996 42.7551 70.7682 42.0243 70.5054 41.3926C70.2472 40.7609 69.8576 40.2675 69.3365 39.9125C68.8155 39.5574 68.1653 39.3776 67.3861 39.373C66.6068 39.373 65.959 39.5505 65.4426 39.9056C64.9261 40.2606 64.5365 40.7563 64.2737 41.3926C64.0155 42.0243 63.8841 42.7551 63.8795 43.5851C63.8748 44.4151 64.0016 45.1459 64.2599 45.7776C64.5227 46.4047 64.9146 46.8981 65.4357 47.2577C65.9567 47.6128 66.6068 47.7926 67.3861 47.7972ZM71.5682 48.5649L75.9808 43.4122L71.9486 38.6053H73.2281L77.0806 43.26V38.6053H78.0973V43.26L81.9497 38.6053H83.2293L79.197 43.4122L83.6097 48.5649H82.3094L78.0973 43.6335V48.5649H77.0806V43.6335L72.8754 48.5649H71.5682ZM83.978 50.2249V47.5897C84.3653 47.5897 84.6765 47.4929 84.9117 47.2992C85.1469 47.101 85.3267 46.8381 85.4512 46.5108C85.5757 46.1834 85.6702 45.8168 85.7348 45.411C85.7993 45.0007 85.8546 44.5857 85.9008 44.1661C85.9653 43.5528 86.016 42.9603 86.0529 42.3886C86.0944 41.8168 86.129 41.2243 86.1567 40.611C86.1889 39.9978 86.2258 39.3269 86.2673 38.5983L92.4091 38.6053V47.5897H93.1215V50.2249H92.1117V48.5649H84.9947V50.2249H83.978ZM85.9215 47.5897H91.3924V39.5805L87.2149 39.5736C87.1872 40.1361 87.1595 40.6802 87.1319 41.2058C87.1042 41.7315 87.0719 42.2618 87.035 42.7966C86.9982 43.3315 86.9497 43.8894 86.8898 44.4704C86.8391 45.0007 86.7791 45.4641 86.71 45.8606C86.6408 46.2572 86.544 46.5961 86.4195 46.8773C86.2996 47.1586 86.1336 47.3961 85.9215 47.5897ZM94.3638 48.5649V38.6053H100.589V39.5805H95.3805V43.0249H99.7586V44.0001H95.3805V47.5897H100.589V48.5649H94.3638ZM101.976 48.5649V38.6053H102.993V43.094H108.498V38.6053H109.508V48.5649H108.498V44.0693H102.993V48.5649H101.976ZM118.701 48.5649H117.677V40.3966L112.193 48.5649H111.169V38.6053H112.193V46.7667L117.677 38.6053H118.701V48.5649ZM120.362 48.5649V38.6053H126.587V39.5805H121.379V43.0249H125.757V44.0001H121.379V47.5897H126.587V48.5649H120.362Z" fill="#191E34"/>
<path d="M0 41.8945L49.3572 0V41.8945H0Z" fill="#192863"/>
<path d="M6.16943 45.0386L43.1873 13.6177V45.0386H6.16943Z" fill="#86909D"/>
<path d="M12.3394 48.1787L37.0179 27.2314V48.1787H12.3394Z" fill="#BED2D2"/>
</svg>
