<svg width="51" height="44" viewBox="0 0 51 44" fill="none" xmlns="http://www.w3.org/2000/svg">
<g filter="url(#filter0_d_2498_274)">
<rect x="4" y="4" width="43" height="36" rx="15" fill="#BED2D2" fill-opacity="0.7" shape-rendering="crispEdges"/>
</g>
<path d="M24.9997 23.5C21.5419 23.5 18.6306 25.84 17.7631 29.0229C17.4726 30.0886 18.3952 31 19.4997 31H30.4997C31.6043 31 32.5269 30.0886 32.2364 29.0229C31.3689 25.84 28.4576 23.5 24.9997 23.5Z" stroke="white" stroke-width="1.5" stroke-linecap="round"/>
<path d="M28.4995 17C28.4995 18.933 26.9325 20.5 24.9995 20.5C23.0665 20.5 21.4995 18.933 21.4995 17C21.4995 15.067 23.0665 13.5 24.9995 13.5C26.9325 13.5 28.4995 15.067 28.4995 17Z" stroke="white" stroke-width="1.5" stroke-linecap="round"/>
<defs>
<filter id="filter0_d_2498_274" x="0" y="0" width="51" height="44" filterUnits="userSpaceOnUse" color-interpolation-filters="sRGB">
<feFlood flood-opacity="0" result="BackgroundImageFix"/>
<feColorMatrix in="SourceAlpha" type="matrix" values="0 0 0 0 0 0 0 0 0 0 0 0 0 0 0 0 0 0 127 0" result="hardAlpha"/>
<feOffset/>
<feGaussianBlur stdDeviation="2"/>
<feComposite in2="hardAlpha" operator="out"/>
<feColorMatrix type="matrix" values="0 0 0 0 0 0 0 0 0 0 0 0 0 0 0 0 0 0 0.25 0"/>
<feBlend mode="normal" in2="BackgroundImageFix" result="effect1_dropShadow_2498_274"/>
<feBlend mode="normal" in="SourceGraphic" in2="effect1_dropShadow_2498_274" result="shape"/>
</filter>
</defs>
</svg>
