<svg xmlns="http://www.w3.org/2000/svg" width="26" height="21" viewBox="0 0 26 21" fill="none">
<path d="M20.0062 9.62483H8.24455L13.383 5.35483C13.7937 5.01358 13.7937 4.45358 13.383 4.11233C13.2856 4.03122 13.1699 3.96686 13.0425 3.92296C12.9151 3.87905 12.7786 3.85645 12.6407 3.85645C12.5028 3.85645 12.3662 3.87905 12.2388 3.92296C12.1115 3.96686 11.9958 4.03122 11.8983 4.11233L4.9593 9.87858C4.86169 9.95953 4.78424 10.0557 4.7314 10.1615C4.67857 10.2674 4.65137 10.3809 4.65137 10.4955C4.65137 10.6101 4.67857 10.7235 4.7314 10.8294C4.78424 10.9352 4.86169 11.0314 4.9593 11.1123L11.8983 16.8786C11.9958 16.9596 12.1116 17.0239 12.2389 17.0677C12.3663 17.1115 12.5028 17.1341 12.6407 17.1341C12.7786 17.1341 12.9151 17.1115 13.0424 17.0677C13.1698 17.0239 13.2855 16.9596 13.383 16.8786C13.4805 16.7976 13.5578 16.7014 13.6106 16.5956C13.6634 16.4897 13.6905 16.3763 13.6905 16.2617C13.6905 16.1471 13.6634 16.0337 13.6106 15.9279C13.5578 15.822 13.4805 15.7258 13.383 15.6448L8.24455 11.3748H20.0062C20.5853 11.3748 21.0591 10.9811 21.0591 10.4998C21.0591 10.0186 20.5853 9.62483 20.0062 9.62483Z" fill="#141515"/>
</svg>