<svg xmlns="http://www.w3.org/2000/svg" width="26" height="21" viewBox="0 0 26 21" fill="none">
<path d="M5.26527 11.3752L17.0269 11.3752L11.8884 15.6452C11.4778 15.9864 11.4778 16.5464 11.8884 16.8877C11.9859 16.9688 12.1016 17.0331 12.2289 17.077C12.3563 17.121 12.4929 17.1436 12.6308 17.1436C12.7687 17.1436 12.9052 17.121 13.0326 17.077C13.16 17.0331 13.2757 16.9688 13.3731 16.8877L20.3122 11.1214C20.4098 11.0405 20.4872 10.9443 20.5401 10.8385C20.5929 10.7326 20.6201 10.6191 20.6201 10.5045C20.6201 10.3899 20.5929 10.2765 20.5401 10.1706C20.4872 10.0648 20.4098 9.96862 20.3122 9.88767L13.3731 4.12142C13.2756 4.04041 13.1599 3.97615 13.0325 3.93231C12.9052 3.88846 12.7686 3.8659 12.6308 3.8659C12.4929 3.8659 12.3564 3.88846 12.229 3.93231C12.1017 3.97615 11.9859 4.04041 11.8884 4.12142C11.791 4.20242 11.7136 4.2986 11.6609 4.40444C11.6081 4.51028 11.5809 4.62373 11.5809 4.73829C11.5809 4.85286 11.6081 4.9663 11.6609 5.07214C11.7136 5.17798 11.791 5.27416 11.8884 5.35517L17.0269 9.62517L5.26527 9.62517C4.68613 9.62517 4.2123 10.0189 4.2123 10.5002C4.2123 10.9814 4.68613 11.3752 5.26527 11.3752Z" fill="#141515"/>
</svg>