<svg width="13" height="13" viewBox="0 0 13 13" fill="none" xmlns="http://www.w3.org/2000/svg">
<path d="M9.2085 4.96708C9.10701 4.8662 8.96972 4.80957 8.82662 4.80957C8.68352 4.80957 8.54624 4.8662 8.44475 4.96708L6.50017 6.88458L4.58267 4.96708C4.48118 4.8662 4.34389 4.80957 4.20079 4.80957C4.05769 4.80957 3.9204 4.8662 3.81892 4.96708C3.76815 5.01744 3.72785 5.07735 3.70035 5.14335C3.67285 5.20936 3.65869 5.28016 3.65869 5.35167C3.65869 5.42317 3.67285 5.49397 3.70035 5.55998C3.72785 5.62599 3.76815 5.68589 3.81892 5.73625L6.11558 8.03292C6.16594 8.08369 6.22585 8.12398 6.29185 8.15148C6.35786 8.17898 6.42866 8.19314 6.50017 8.19314C6.57167 8.19314 6.64247 8.17898 6.70848 8.15148C6.77449 8.12398 6.83439 8.08369 6.88475 8.03292L9.2085 5.73625C9.25927 5.68589 9.29957 5.62599 9.32706 5.55998C9.35456 5.49397 9.36872 5.42317 9.36872 5.35167C9.36872 5.28016 9.35456 5.20936 9.32706 5.14335C9.29957 5.07735 9.25927 5.01744 9.2085 4.96708Z" fill="#191E34"/>
</svg>
